<?xml version="1.0" encoding="utf-8"?><svg xmlns="http://www.w3.org/2000/svg" xmlns:xlink="http://www.w3.org/1999/xlink"><defs><svg viewBox="0 0 16 16" id="archive" xmlns="http://www.w3.org/2000/svg"><path d="M3.2 2.4a1.6 1.6 0 100 3.2h9.6a1.6 1.6 0 100-3.2H3.2z"/><path fill-rule="evenodd" clip-rule="evenodd" d="M2.4 6.4h11.2V12a1.6 1.6 0 01-1.6 1.6H4A1.6 1.6 0 012.4 12V6.4zm4 2.4a.8.8 0 01.8-.8h1.6a.8.8 0 010 1.6H7.2a.8.8 0 01-.8-.8z"/></svg><svg viewBox="0 0 20 20" id="arrow-right" xmlns="http://www.w3.org/2000/svg"><path d="M2.33 9.17v1.66h13l-4.58 4.59 1.18 1.18 6.6-6.6-6.6-6.6-1.18 1.18 4.58 4.59h-13z"/></svg><svg viewBox="0 0 16 16" id="auction" xmlns="http://www.w3.org/2000/svg"><path d="M9.33 13.33v1.34h-8v-1.34h8zM9.73.46l5.18 5.18-.94.95-.71-.24L11.61 8l3.77 3.77-.94.94-3.77-3.77-1.6 1.6.18.76-.94.94-5.19-5.18.95-.95.75.2 4.2-4.2-.24-.7.94-.95z"/></svg><svg viewBox="0 0 122 122" id="authenticity" xmlns="http://www.w3.org/2000/svg"><path d="M71.61 64.93H42.54c0-3.23 2.67-5.9 5.9-5.9h23.31c2.95 0 5.76-2.1 6.04-5.19a5.99 5.99 0 00-5.9-6.73H48.44a5.93 5.93 0 01-5.9-5.9h29.35c6.75 0 12.22 5.61 11.8 12.5-.28 6.3-5.76 11.22-12.08 11.22zm-7.86 17.68H48.44a5.93 5.93 0 01-5.9-5.9h15.3c3.24 0 5.9 2.68 5.9 5.9zM12.9 44.02c-2.81-1.27-3.23-3.8-2.39-5.9.84-2.1 2.67-2.94 4.5-2.38l-.7 1.68a2.09 2.09 0 00-2.25 1.26c-.57 1.4-.14 2.81 1.54 3.65 1.83.7 3.23.14 3.8-1.26.56-.98.13-2.25-.57-2.67-.14-.14-.42 0-.42.14l-.7 1.55-1.27-.56.99-2.25c.28-.7 1.12-.98 1.82-.7l3.1 1.4-.7 1.55-1.27-.56c.7.56.84 1.68.42 2.8-.84 2.1-3.1 3.37-5.9 2.25zm7.58-12.35l-4.35-3.51 1.12-1.4 4.36 3.5c.84.7 1.82.56 2.39-.28.7-.84.7-1.68-.28-2.38l-4.36-3.51 1.12-1.4 4.36 3.5c1.68 1.4 1.68 3.23.42 4.92-1.26 1.54-2.95 1.96-4.78.56zM33.97 20.3l-2.53 1.96.56 1.97-1.54 1.12-2.53-9.12 1.4-1.12 8.01 5.05-1.54 1.12-1.83-.98zm-1.4-.98l-2.53-1.69.84 2.95 1.68-1.26zm15.16-3.65l-1.82.7-.98-1.97c-.29-.56-.85-.84-1.4-.56l-1.55.56 1.12 2.95-1.83.7-3.23-8.28 3.51-1.4c1.69-.7 3.23 0 3.8 1.54.28.84.14 1.55-.42 2.1.84.29 1.4.7 1.68 1.41l1.12 2.25zM41.41 13l1.55-.56c.84-.28.98-.98.7-1.55-.14-.7-.7-1.12-1.54-.84l-1.55.56.84 2.39zm16.58-1.12l-3.23.42-.42 1.96-1.97.14 2.39-9.12 1.82-.14 4.36 8.42-1.97.28-.98-1.96zm-.84-1.55l-1.27-2.8-.7 3.08 1.97-.28zM66.84 5l1.96.28 2.53 6.32.99-5.76 1.82.28-1.4 8.7-1.97-.28-2.53-6.31-.98 5.75-1.83-.28 1.4-8.7zm15.87 5.75l-2.39-1.12.7-1.54 6.47 2.95-.7 1.54-2.4-1.12-2.94 6.6-1.69-.85 2.95-6.46zm10.53 3.93l4.78 3.65-.98 1.27-3.23-2.53-1.13 1.54 2.53 1.97-.98 1.26-2.53-1.96-1.26 1.68 3.37 2.67-1.13 1.26-4.91-3.79 5.47-7.02zm9.98 8.99l3.79 4.77-1.26.98-2.53-3.37-1.4 1.13 2.1 2.52-1.4 1.12-2.11-2.52-1.55 1.26 2.67 3.37-1.26.98-3.8-4.77 6.75-5.47zm7.72 11.08l1.27 2.67c.98 2.25.56 4.77-2.25 6.04-2.8 1.26-4.92-.14-5.9-2.39l-1.26-2.67 8.14-3.65zm-5.47 5.48c.56 1.26 1.82 2.38 3.65 1.54 1.82-.84 1.96-2.38 1.4-3.79l-.42-.84-5.06 2.25.42.84zM17.82 93.28l-1.83-2.67-1.97.57-1.12-1.55 9.13-2.38.98 1.4-5.33 7.86-1.13-1.55 1.27-1.68zm.98-1.4l1.68-2.53-2.95.84 1.27 1.69zm5.2 6.59l3.65-4.2 1.4 1.12-3.65 4.2c-.7.85-.56 1.83.14 2.4.84.7 1.69.7 2.39-.15l3.65-4.2 1.4 1.11-3.65 4.22c-1.4 1.68-3.23 1.54-4.91.28-1.55-1.27-1.97-3.1-.42-4.78zm14.18 5.48l-2.38-1.13.7-1.4 6.32 3.23-.7 1.4-2.4-1.12-3.22 6.46-1.69-.85 3.37-6.6zm16.16 3.79l-1.97 8.56-1.83-.42.85-3.65-3.52-.84-.84 3.64-1.82-.42 1.96-8.56 1.83.42-.84 3.37 3.5.84.85-3.36 1.83.42zm5.33.42l6.04-.14v1.68l-4.07.14v1.83h3.23v1.68h-3.23v2.1l4.21-.13V117l-6.18.14v-8.98zm11.1-.7l1.97-.56 4.91 4.63-1.54-5.62 1.82-.56 2.4 8.56-1.97.56-4.92-4.63 1.54 5.62-1.96.42-2.25-8.42zm14.47-3.66l-2.25 1.27-.84-1.4 6.18-3.51.84 1.4-2.25 1.27 3.52 6.31-1.69.98-3.51-6.31zm6.74-6.45l1.4-1.26 5.76 6.73-1.4 1.27-5.76-6.74zm8.57-1.96c-2.39-1.83-2.39-4.35-.84-6.32 1.4-1.82 3.37-2.25 5.05-1.26l-1.26 1.54c-.84-.42-1.83-.14-2.53.7-.84 1.13-.7 2.67.7 3.8 1.4 1.11 2.95.83 3.8-.29.7-.84.7-1.96.14-2.67l1.12-1.54c1.4 1.26 1.4 3.37 0 5.2-1.27 1.96-3.8 2.66-6.18.84zM10.23 69.28a3.23 3.23 0 100-6.46 3.23 3.23 0 000 6.46zm102.54 0a3.23 3.23 0 100-6.46 3.23 3.23 0 000 6.46z"/></svg><svg viewBox="0 0 21 20" id="bag" xmlns="http://www.w3.org/2000/svg"><path d="M10.5 2.5a2.68 2.68 0 012.68 2.68v.53H7.82v-.53A2.68 2.68 0 0110.5 2.5zm3.75 3.21v-.53a3.75 3.75 0 00-7.5 0v.53H3v10.72a2.14 2.14 0 002.14 2.14h10.72A2.14 2.14 0 0018 16.43V5.7h-3.75z"/></svg><svg viewBox="0 0 22 27" id="bag-outline" xmlns="http://www.w3.org/2000/svg"><path fill-rule="evenodd" clip-rule="evenodd" d="M2.08 8.95c-.2 0-.33.15-.33.3v15.7c0 .15.13.3.33.3h17.84c.2 0 .33-.15.33-.3V9.25c0-.15-.13-.3-.33-.3H2.08zm-1.83.3c0-1 .83-1.8 1.83-1.8h17.84c1 0 1.83.8 1.83 1.8v15.7c0 1-.83 1.8-1.83 1.8H2.08c-1 0-1.83-.8-1.83-1.8V9.25z"/><path fill-rule="evenodd" clip-rule="evenodd" d="M4.86 6.37a6.13 6.13 0 0112.28 0v4.29a.75.75 0 11-1.5 0v-4.3A4.63 4.63 0 0011 1.76a4.63 4.63 0 00-4.64 4.62v4.29a.75.75 0 01-1.5 0v-4.3z"/></svg><svg viewBox="0 0 36 14" id="burger" xmlns="http://www.w3.org/2000/svg"><path fill-rule="evenodd" clip-rule="evenodd" d="M36 1.75H0V.25h36v1.5zm0 6H0v-1.5h36v1.5zm0 6H0v-1.5h36v1.5z"/></svg><svg viewBox="0 0 20 20" id="calendar" xmlns="http://www.w3.org/2000/svg"><path fill-rule="evenodd" clip-rule="evenodd" d="M6.67.92c.41 0 .75.33.75.75v.91h5.16v-.91a.75.75 0 111.5 0v.91H15a4.08 4.08 0 014.08 4.09V15A4.08 4.08 0 0115 19.08H5A4.08 4.08 0 01.92 15V6.67A4.08 4.08 0 015 2.58h.92v-.91c0-.42.33-.75.75-.75zm-.75 3.16H5a2.58 2.58 0 00-2.58 2.59v.91h15.16v-.91A2.58 2.58 0 0015 4.08h-.92V5a.75.75 0 01-1.5 0v-.92H7.42V5a.75.75 0 11-1.5 0v-.92zm11.66 5H2.42V15A2.58 2.58 0 005 17.58h10A2.58 2.58 0 0017.58 15V9.08z"/></svg><svg viewBox="0 0 16 16" id="close" xmlns="http://www.w3.org/2000/svg"><path fill-rule="evenodd" clip-rule="evenodd" d="M1.47 1.47c.3-.3.77-.3 1.06 0L8 6.94l5.47-5.47a.75.75 0 111.06 1.06L9.06 8l5.47 5.47a.75.75 0 11-1.06 1.06L8 9.06l-5.47 5.47a.75.75 0 01-1.06-1.06L6.94 8 1.47 2.53a.75.75 0 010-1.06z"/></svg><svg viewBox="0 0 16 16" id="drop" xmlns="http://www.w3.org/2000/svg"><path fill-rule="evenodd" clip-rule="evenodd" d="M14.53 5.47a.75.75 0 00-1.06 0L8 10.94 2.53 5.47a.75.75 0 00-1.06 1.06l6 6c.3.3.77.3 1.06 0l6-6c.3-.3.3-.77 0-1.06z"/></svg><svg viewBox="0 0 24 24" id="email" xmlns="http://www.w3.org/2000/svg"><path d="M6 4.5a3 3 0 00-3 3v.3l9 4.85 9-4.85v-.3a3 3 0 00-3-3H6z"/><path d="M21 9.5l-8.64 4.66a.75.75 0 01-.72 0L3 9.51v6.99a3 3 0 003 3h12a3 3 0 003-3v-7z"/></svg><svg viewBox="0 0 122 122" id="experts" xmlns="http://www.w3.org/2000/svg"><path d="M94.55 46.67A1.67 1.67 0 0096 45V18.33a1.67 1.67 0 00-.62-1.28 1.67 1.67 0 00-1.38-.38s-1.88.38-4.67.9v-5.9a1.67 1.67 0 10-3.33 0v6.55c-8 1.46-19.81 3.45-25 3.45-5.18 0-17-1.99-25-3.45v-6.55a1.67 1.67 0 10-3.33 0v5.93c-2.78-.52-4.6-.93-4.66-.93a1.67 1.67 0 00-1.84.93c-.11.23-.17.48-.16.73V45a1.67 1.67 0 001.45 1.67l5.21.66V64l-4.78-.67A1.67 1.67 0 0026.01 65v10.3a.94.94 0 000 .25c.05.15.13.3.23.42v.11c.14.16.31.3.5.39l30.53 15.2-30.35 15.18a1.67 1.67 0 00.75 3.15c.27 0 .52-.06.75-.18L61 93.53l32.58 16.29a1.67 1.67 0 001.5-2.97L64.74 91.67l30.34-15.19c.2-.09.36-.22.5-.38v-.12c.1-.12.18-.26.24-.41a.95.95 0 000-.25c.07-.1.13-.2.18-.32V65a1.67 1.67 0 00-1.88-1.67l-4.79.64V47.3l5.22-.63zm-65.2-26.3C35.46 21.55 53.81 25 61 25c7.19 0 25.53-3.45 31.67-4.63v23.16c-5.44.7-24.65 3.14-31.67 3.14-7.01 0-26.23-2.44-31.66-3.14V20.37zm7.79 57.5C45.14 78.83 56 80 61 80s15.87-1.17 23.87-2.13L61 89.8 37.14 77.87zm55.53-4.34c-5.44.7-24.65 3.14-31.67 3.14-7.01 0-26.23-2.44-31.66-3.14v-6.66C35.36 67.68 53.87 70 61 70c7.14 0 25.65-2.32 31.67-3.1v6.63zM86 64.37c-8.01.98-19.81 2.3-25 2.3-5.18 0-16.98-1.32-25-2.3V47.7c8.08 1.02 19.7 2.3 25 2.3 5.32 0 16.94-1.28 25-2.27v16.64z"/></svg><svg viewBox="0 0 512 512" id="flag-uk" xmlns="http://www.w3.org/2000/svg"><circle cx="256" cy="256" r="256" fill="#f0f0f0"/><path d="M53 100c-20 26-35 56-44 89h133l-89-89zm450 89c-9-33-24-63-44-89l-89 89h133zM9 323c9 33 24 63 44 89l89-89H9zM412 53c-26-20-56-35-89-44v133l89-89zM100 459c26 20 56 35 89 44V370l-89 89zM189 9c-33 9-63 24-89 44l89 89V9zm134 494c33-9 63-24 89-44l-89-89v133zm47-180l89 89c20-26 35-56 44-89H370z" fill="#0052b4"/><g fill="#d80027"><path d="M510 223H289V2a259 259 0 00-66 0v221H2a259 259 0 000 66h221v221a259 259 0 0066 0V289h221a259 259 0 000-66z"/><path d="M323 323l114 114 15-16-98-98h-31zm-134 0L75 437l16 15 98-98v-31zm0-134L75 75 60 91l98 98h31zm134 0L437 75l-16-15-98 98v31z"/></g></svg><svg viewBox="0 0 512 512" id="flag-usa" xmlns="http://www.w3.org/2000/svg"><circle cx="256" cy="256" r="256" fill="#f0f0f0"/><path d="M244.87 256H512c0-23.1-3.08-45.49-8.82-66.78H244.87V256zm0-133.56h229.56a257.35 257.35 0 00-59.07-66.79H244.87v66.78zM256 512a254.9 254.9 0 00159.36-55.65H96.64A254.9 254.9 0 00256 512zM37.57 389.56h436.86a254.47 254.47 0 0028.75-66.78H8.82a254.47 254.47 0 0028.75 66.79z" fill="#d80027"/><path d="M118.58 39.98h23.33l-21.7 15.76 8.3 25.51-21.7-15.76-21.7 15.76 7.15-22.04a257.4 257.4 0 00-49.65 55.34h7.48L36.27 124.6a255.58 255.58 0 00-6.19 10.94l6.6 20.3-12.31-8.95A253.57 253.57 0 0016 166.76l7.27 22.37h26.82l-21.7 15.76 8.29 25.51-21.7-15.77-13 9.45A258.47 258.47 0 000 256h256V0a254.79 254.79 0 00-137.42 39.98zm9.92 190.42l-21.7-15.77-21.7 15.77 8.3-25.5-21.7-15.77h26.8l8.3-25.51 8.28 25.5h26.82l-21.7 15.77 8.3 25.51zm-8.29-100.08l8.3 25.5-21.7-15.76-21.7 15.77 8.28-25.51-21.7-15.77h26.82l8.3-25.5 8.28 25.5h26.82l-21.7 15.77zM220.33 230.4l-21.7-15.77-21.7 15.77 8.29-25.5-21.7-15.77h26.82l8.29-25.51 8.29 25.5h26.82l-21.7 15.77 8.29 25.51zm-8.3-100.08l8.3 25.5-21.7-15.76-21.7 15.77 8.29-25.51-21.7-15.77h26.82l8.29-25.5 8.29 25.5h26.82l-21.7 15.77zm0-74.58l8.3 25.51-21.7-15.76-21.7 15.76 8.29-25.5-21.7-15.77h26.82l8.29-25.51 8.29 25.5h26.82l-21.7 15.77z" fill="#0052b4"/></svg><svg viewBox="0 0 24 24" id="follow-facebook" xmlns="http://www.w3.org/2000/svg"><path d="M22 12a10 10 0 10-12 9.8V15H8v-3h2V9.5A3.5 3.5 0 0113.5 6H16v3h-2a1 1 0 00-1 1v2h3v3h-3v6.95A10 10 0 0022 12z"/></svg><svg viewBox="0 0 24 24" id="follow-instagram" xmlns="http://www.w3.org/2000/svg"><path d="M12 8.88a3.13 3.13 0 000 6.24 3.13 3.13 0 000-6.24zM21.37 12c0-1.3.01-2.58-.06-3.87-.07-1.5-.42-2.83-1.51-3.93-1.1-1.1-2.43-1.43-3.93-1.5-1.3-.08-2.58-.07-3.87-.07-1.3 0-2.57-.01-3.86.06-1.5.08-2.84.42-3.93 1.51C3.1 5.3 2.77 6.63 2.7 8.13c-.08 1.3-.07 2.58-.07 3.87 0 1.3 0 2.58.07 3.87.07 1.5.41 2.83 1.5 3.93 1.1 1.1 2.44 1.43 3.94 1.5 1.29.08 2.57.07 3.86.07 1.3 0 2.58.01 3.87-.06 1.5-.08 2.83-.42 3.93-1.51 1.1-1.1 1.44-2.43 1.5-3.93.08-1.3.07-2.58.07-3.87zM12 16.8a4.8 4.8 0 11-.01-9.6 4.8 4.8 0 01.01 9.6zm5-8.68a1.12 1.12 0 110-2.24 1.12 1.12 0 010 2.24z"/></svg><svg viewBox="0 0 24 24" id="follow-linkedin" xmlns="http://www.w3.org/2000/svg"><path d="M19.66 3H4.34A1.34 1.34 0 003 4.3v15.35a1.33 1.33 0 001.34 1.3h15.32a1.33 1.33 0 001.34-1.3V4.3A1.34 1.34 0 0019.66 3zM8.33 18.3H5.7V9.76h2.64v8.56zM7.04 8.57a1.55 1.55 0 01-1.11-2.63 1.5 1.5 0 011.11-.44 1.55 1.55 0 010 3.1v-.03zm11.32 9.7h-2.61v-4.19c0-1 0-2.3-1.4-2.3-1.39 0-1.6 1.1-1.6 2.2v4.24h-2.67V9.75h2.49v1.13h.05a2.79 2.79 0 012.54-1.4c2.7 0 3.2 1.8 3.2 4.09v4.68z"/></svg><svg viewBox="0 0 24 24" id="follow-twitter" xmlns="http://www.w3.org/2000/svg"><path d="M22.5 6l-2.25.37 1.5-1.87-2.63.75C15.75 1.5 10.5 5.62 12 9 6 9 3 4.5 3 4.5s-2.25 3.37 1.5 6l-2.25-.75c0 2.25 1.5 3.75 4.13 4.5H3.75c1.5 3 4.13 3 4.13 3s-2.25 1.87-6.38 1.87c12.38 6 19.88-5.25 18.75-11.25L22.5 6z"/></svg><svg viewBox="0 0 21 20" id="globe" xmlns="http://www.w3.org/2000/svg"><path d="M10.5 1.88a8.13 8.13 0 000 16.25 8.13 8.13 0 000-16.25zm0 1.25c.21 0 .42 0 .63.03v1.21H9.87l-.62 1.88h-.63v.63h3.13l.63.62H13v.63l-.63.62-2.5-.63L7.38 10v1.88l1.25 1.24h1.88v1.57l.63 1.56h.62l1.88-2.5v-.63l.62-1.24v-.63h-.63L13 10l.63-.63.93.63 1.56-.63v-.62h1.14A6.87 6.87 0 113.62 10c0-3.8 3.09-6.88 6.88-6.88z"/></svg><svg viewBox="0 0 80 80" id="guaranteed-authentic" xmlns="http://www.w3.org/2000/svg"><path d="M46.96 42.58H27.89a3.89 3.89 0 013.87-3.87h15.3c1.93 0 3.77-1.38 3.95-3.4a3.93 3.93 0 00-3.87-4.42H31.76a3.89 3.89 0 01-3.87-3.87h19.25a7.72 7.72 0 017.74 8.2c-.18 4.14-3.78 7.36-7.92 7.36zM41.8 54.17H31.76a3.89 3.89 0 01-3.87-3.86h10.04a3.89 3.89 0 013.87 3.86zM8.46 28.86c-1.84-.82-2.12-2.48-1.57-3.86.56-1.38 1.75-1.93 2.95-1.57l-.46 1.1c-.55-.08-1.2.2-1.47.84-.37.92-.1 1.84 1 2.39 1.2.46 2.13.1 2.5-.83.36-.64.09-1.47-.37-1.75-.1-.09-.28 0-.28.1l-.46 1-.83-.36.65-1.47c.18-.46.73-.65 1.2-.46l2.02.92-.46 1-.83-.36c.46.37.55 1.1.28 1.84-.56 1.38-2.03 2.21-3.87 1.47zm4.97-8.09l-2.85-2.3.73-.93 2.86 2.3c.55.46 1.2.37 1.56-.18.47-.55.47-1.1-.18-1.56l-2.86-2.3.74-.93 2.86 2.3c1.1.93 1.1 2.12.27 3.23-.83 1-1.93 1.29-3.13.37zm8.84-7.46l-1.65 1.29.36 1.29-1 .73-1.67-5.98.92-.73 5.25 3.3-1 .74-1.2-.64zm-.92-.64l-1.65-1.1.55 1.92 1.1-.82zm9.95-2.4l-1.2.46-.64-1.29c-.19-.36-.55-.55-.92-.36l-1.02.36.74 1.94-1.2.46-2.11-5.43 2.3-.92c1.1-.46 2.12 0 2.48 1.01.19.55.1 1.01-.27 1.38.55.18.92.46 1.1.92l.74 1.47zm-4.14-1.75l1-.36c.56-.19.65-.65.47-1.02-.1-.46-.46-.73-1.01-.55l-1.02.37.56 1.56zm10.86-.73l-2.11.27-.28 1.3-1.29.08 1.57-5.98 1.2-.09 2.85 5.52-1.29.19-.65-1.3zm-.55-1.01l-.83-1.84-.46 2.02 1.3-.18zm6.36-3.5l1.29.18 1.65 4.14.65-3.77 1.2.18-.92 5.71-1.3-.18-1.65-4.14-.65 3.77-1.2-.19.93-5.7zm10.41 3.77l-1.57-.73.46-1.02 4.24 1.94-.46 1-1.57-.73-1.93 4.33-1.1-.55 1.93-4.24zm6.9 2.58l3.14 2.4-.65.82-2.12-1.66-.73 1.02 1.65 1.28-.64.83-1.66-1.29-.83 1.1 2.21 1.76-.73.83-3.23-2.49 3.6-4.6zm6.54 5.89l2.49 3.13-.83.64-1.66-2.2-.92.73 1.38 1.66-.92.73-1.38-1.65-1.01.82 1.75 2.21-.83.65-2.49-3.13 4.42-3.6zm5.07 7.27l.83 1.75c.64 1.47.37 3.13-1.48 3.96-1.84.82-3.22-.1-3.86-1.57l-.83-1.75 5.34-2.39zm-3.6 3.59c.38.83 1.2 1.56 2.4 1.01s1.3-1.56.92-2.48l-.27-.56-3.32 1.48.28.55zM11.68 61.17l-1.2-1.75-1.28.37-.74-1.02 5.99-1.56.64.92-3.5 5.15-.74-1 .83-1.11zm.65-.92l1.1-1.66-1.93.55.83 1.1zm3.4 4.32l2.4-2.76.92.74-2.4 2.76c-.45.55-.36 1.2.1 1.56.55.46 1.1.46 1.56-.09l2.4-2.76.92.74-2.4 2.76c-.92 1.1-2.11 1.01-3.22.18-1.01-.83-1.29-2.02-.28-3.13zm9.31 3.59l-1.57-.73.46-.92 4.15 2.11-.46.92-1.57-.73-2.12 4.23-1.1-.55 2.2-4.33zm10.59 2.49l-1.29 5.61-1.2-.28.56-2.39-2.3-.55-.56 2.4-1.2-.28 1.3-5.62 1.19.28-.55 2.2 2.3.56.55-2.2 1.2.27zm3.5.27l3.96-.09v1.1l-2.67.1v1.2h2.12v1.1h-2.12v1.38l2.76-.1v1.11l-4.05.1v-5.9zm7.27-.46l1.3-.37 3.22 3.04-1.01-3.68 1.2-.37 1.56 5.62-1.29.36-3.22-3.03 1.01 3.68-1.29.28-1.47-5.53zm9.5-2.39l-1.48.83-.55-.92 4.05-2.3.55.92-1.47.83 2.3 4.14-1.1.64-2.3-4.14zm4.41-4.23l.93-.83L65 67.43l-.92.82-3.78-4.41zm5.62-1.29c-1.56-1.2-1.56-2.85-.55-4.14.92-1.2 2.21-1.48 3.32-.83l-.83 1.01c-.56-.28-1.2-.1-1.66.46-.55.74-.46 1.75.46 2.49.92.73 1.93.55 2.49-.19.46-.55.46-1.29.09-1.75l.74-1c.92.82.92 2.2 0 3.4-.83 1.28-2.5 1.74-4.06.55zM6.7 45.43a2.12 2.12 0 10.01-4.24 2.12 2.12 0 000 4.24zm67.25 0a2.12 2.12 0 100-4.24 2.12 2.12 0 000 4.24z"/></svg><svg viewBox="0 0 20 20" id="heart" xmlns="http://www.w3.org/2000/svg"><path fill-rule="evenodd" clip-rule="evenodd" d="M10 4.38a5.92 5.92 0 00-3.63-1.46 4.44 4.44 0 00-3.73 1.74c-1.14 1.44-.96 3.84.34 6.25A14.13 14.13 0 0010 17.12a14.27 14.27 0 007.04-6.21c1.28-2.41 1.46-4.81.32-6.25a4.44 4.44 0 00-3.73-1.74A5.92 5.92 0 0010 4.38zm6.19 1.21a2.95 2.95 0 00-2.52-1.17c-.97.03-1.96.46-2.68 1.09l-.99.86-.99-.86a4.43 4.43 0 00-2.68-1.1c-.94-.02-1.8.3-2.52 1.18-.57.73-.71 2.38.49 4.6v.02a12.52 12.52 0 005.7 5.27c2.7-1.3 4.65-3.3 5.72-5.28 1.18-2.22 1.04-3.88.47-4.6z"/></svg><svg viewBox="0 0 20 20" id="heart-fill" xmlns="http://www.w3.org/2000/svg"><path d="M10 17.12a14.27 14.27 0 007.04-6.21c1.28-2.41 1.46-4.81.32-6.25a4.44 4.44 0 00-3.73-1.74A5.92 5.92 0 0010 4.38a5.92 5.92 0 00-3.63-1.46 4.44 4.44 0 00-3.73 1.74c-1.14 1.44-.96 3.84.34 6.25A14.13 14.13 0 0010 17.12z"/></svg><svg viewBox="0 0 16 16" id="i" xmlns="http://www.w3.org/2000/svg"><path d="M8 1a7 7 0 100 14A7 7 0 008 1zm.5 10.38c0 .06-.06.12-.13.12h-.74a.13.13 0 01-.13-.13V7.13c0-.07.06-.13.13-.13h.75c.06 0 .12.06.12.13v4.25zM8 6a.75.75 0 010-1.5A.75.75 0 018 6z"/></svg><svg viewBox="0 0 16 16" id="live" xmlns="http://www.w3.org/2000/svg"><path d="M10.5 8a2.5 2.5 0 11-5 0 2.5 2.5 0 015 0zM5.17 5.17a.5.5 0 10-.7-.7 5 5 0 000 7.07.5.5 0 10.7-.71 4 4 0 010-5.66zM13 8a4.99 4.99 0 00-1.46-3.54.5.5 0 10-.71.71 4 4 0 010 5.66.5.5 0 00.7.7A4.99 4.99 0 0013 8zM2.01 10.53a6.5 6.5 0 011.4-7.13.5.5 0 10-.71-.7 7.5 7.5 0 000 10.6.5.5 0 10.7-.7 6.73 6.73 0 01-1.39-2.07zm12.9-5.45c-.38-.9-.92-1.7-1.6-2.38a.5.5 0 10-.71.7 6.5 6.5 0 010 9.2.5.5 0 10.7.7 7.5 7.5 0 001.61-8.22z"/></svg><svg viewBox="0 0 20 20" id="location" xmlns="http://www.w3.org/2000/svg"><path d="M10 0a8.57 8.57 0 018.57 8.57c0 4.1-2.76 7.87-8.19 11.32a.71.71 0 01-.76 0c-5.43-3.45-8.2-7.22-8.2-11.32A8.57 8.57 0 0110 0zm0 1.43a7.14 7.14 0 00-7.14 7.14c0 3.32 2.2 6.51 6.68 9.56l.46.3.46-.3c4.48-3.05 6.68-6.24 6.68-9.56A7.14 7.14 0 0010 1.43zm0 5a2.14 2.14 0 110 4.28 2.14 2.14 0 010-4.28z"/></svg><svg viewBox="0 0 21 20" id="pay-card" xmlns="http://www.w3.org/2000/svg"><path d="M1.93 5.54a1.96 1.96 0 011.96-1.97h13.22a1.96 1.96 0 011.96 1.97v1.6H1.93v-1.6zm0 2.67h17.14v5.54a1.96 1.96 0 01-1.96 1.96H3.89a1.96 1.96 0 01-1.96-1.96V8.21zm11.78 3.5a.64.64 0 100 1.29h2.15a.64.64 0 100-1.29H13.7z"/></svg><svg viewBox="0 0 122 122" id="payment-plans" xmlns="http://www.w3.org/2000/svg"><path fill-rule="evenodd" clip-rule="evenodd" d="M78.46 40.35L62 7 45.54 40.35l-36.8 5.34 26.63 25.96-6.29 36.66L62 91l32.92 17.3-6.29-36.65 26.63-25.96-36.8-5.34zm30.35 7.44l-32.34-4.7L62 13.78 47.53 43.09l-32.34 4.7 23.4 22.82-5.52 32.21L62 87.62l28.93 15.2-5.52-32.21 23.4-22.82z"/><path d="M68.73 65.77c0-7.1-9.91-4.08-9.91-8.1 0-1.28 1.12-2.11 2.91-2.11 1.93 0 3.17 1.06 3.33 2.65h3.28c-.13-2.89-2.03-4.94-4.97-5.46v-2.29h-2.78v2.21c-3.07.39-5.12 2.31-5.12 5 0 6.96 9.77 4.26 9.77 8.16 0 1.6-1.35 2.39-3.3 2.39-2.18 0-3.54-1.3-3.72-3.33h-3.3a6.26 6.26 0 005.67 6.21v2.3l2.78.02V71.1c3.22-.41 5.36-2.36 5.36-5.33z"/></svg><svg viewBox="0 0 100 100" id="play-circle" xmlns="http://www.w3.org/2000/svg"><path d="M50 6.25a43.75 43.75 0 100 87.5 43.75 43.75 0 000-87.5zm14.07 44.42L42.74 66.2a.78.78 0 01-1.24-.63V34.54a.78.78 0 011.24-.63l21.33 15.5a.77.77 0 010 1.26z"/></svg><svg viewBox="0 0 60 60" id="propstore-monogram" xmlns="http://www.w3.org/2000/svg"><g clip-path="url(#bcclip0)"><path d="M42.3 34.29H0a8.6 8.6 0 018.62-8.58H42.5c4.38 0 8.3-3.11 8.87-7.48a8.62 8.62 0 00-8.56-9.71H8.62A8.53 8.53 0 010 0h42.77C52.53 0 60.47 8.16 60 18.03c-.47 9.2-8.46 16.26-17.7 16.26zM30.86 60H8.62A8.56 8.56 0 010 51.48h22.25c4.75 0 8.61 3.8 8.61 8.52z"/></g><defs><clipPath id="bcclip0"><path d="M0 0h60v60H0z"/></clipPath></defs></svg><svg viewBox="0 0 16 16" id="reserved" xmlns="http://www.w3.org/2000/svg"><path d="M8 1a7 7 0 100 14A7 7 0 008 1zm3.67 11.5L3.49 4.34c.25-.3.53-.59.84-.84l8.18 8.18c-.25.3-.53.59-.84.84z"/></svg><svg viewBox="0 0 20 20" id="search" xmlns="http://www.w3.org/2000/svg"><path fill-rule="evenodd" clip-rule="evenodd" d="M8.75 2.67a6.08 6.08 0 100 12.16 6.08 6.08 0 000-12.16zm6.38 11.04a8.08 8.08 0 10-1.41 1.42l3.07 3.08a1 1 0 001.42-1.42l-3.08-3.08z"/></svg><svg viewBox="0 0 24 24" id="share-pinterest" xmlns="http://www.w3.org/2000/svg"><path d="M11.99 2a9.99 9.99 0 00-3.64 19.3 9.6 9.6 0 01.03-2.87l1.18-4.97s-.3-.6-.3-1.48c0-1.39.8-2.43 1.8-2.43.86 0 1.27.64 1.27 1.41 0 .86-.55 2.14-.83 3.33-.23 1 .5 1.8 1.48 1.8 1.78 0 3.14-1.87 3.14-4.57 0-2.4-1.72-4.07-4.17-4.07a4.32 4.32 0 00-4.51 4.34c0 .86.33 1.78.74 2.28a.3.3 0 01.07.28l-.28 1.14c-.04.18-.14.22-.33.13-1.25-.58-2.03-2.4-2.03-3.87 0-3.15 2.29-6.04 6.6-6.04 3.47 0 6.16 2.46 6.16 5.76 0 3.45-2.17 6.22-5.18 6.22-1.02 0-1.97-.53-2.3-1.15l-.62 2.38c-.22.86-.83 1.95-1.24 2.62A10 10 0 1012 2z"/></svg><svg viewBox="0 0 16 16" id="star" xmlns="http://www.w3.org/2000/svg"><path d="M14.19 5.52l-3.97-.58-1.77-3.6a.5.5 0 00-.9 0l-1.77 3.6-3.97.58a.5.5 0 00-.28.85l2.87 2.8-.67 3.95a.5.5 0 00.72.53L8 11.78l3.55 1.87c.1.05.2.07.32.05a.5.5 0 00.4-.58l-.67-3.95 2.87-2.8a.5.5 0 00-.28-.85z"/></svg><svg viewBox="0 0 16 16" id="target-blank" xmlns="http://www.w3.org/2000/svg"><path fill-rule="evenodd" clip-rule="evenodd" d="M10 2.75a.75.75 0 010-1.5h4c.41 0 .75.34.75.75v4a.75.75 0 01-1.5 0V3.81L7.2 9.86A.75.75 0 116.14 8.8l6.05-6.05H10zm-6.67 2a.58.58 0 00-.58.58v7.34a.58.58 0 00.58.58h7.34a.58.58 0 00.58-.58v-4a.75.75 0 011.5 0v4a2.08 2.08 0 01-2.08 2.08H3.33a2.08 2.08 0 01-2.08-2.08V5.33a2.08 2.08 0 012.08-2.08h4a.75.75 0 110 1.5h-4z"/></svg><svg viewBox="0 0 32 32" id="ticket" xmlns="http://www.w3.org/2000/svg"><path d="M28.81 6.45a3.2 3.2 0 00-3.18-3.2l-7.82-.04a3.2 3.2 0 00-2.28.93L4.83 14.8a3.2 3.2 0 000 4.53l7.92 7.92a3.2 3.2 0 004.53 0l10.6-10.61a3.2 3.2 0 00.94-2.27l-.01-7.92zM22.4 11.2a1.6 1.6 0 110-3.2 1.6 1.6 0 010 3.2z"/></svg><svg viewBox="0 0 122 122" id="vouchers" xmlns="http://www.w3.org/2000/svg"><path d="M51.86 53.46l17.09 16.97c.67.67.6 1.66-.05 2.17l-.06.05-.05.06c-.5.58-1.53.63-2.2-.04L49.6 55.68l-.02-.02c-.53-.46-.57-1.5.08-2.24.5-.57 1.53-.63 2.2.04zm8.42 25.64c.61.6.6 1.44-.03 2.16-.5.57-1.53.63-2.2-.04l-17-17-.01-.01c-.54-.47-.58-1.5.07-2.24.5-.58 1.53-.64 2.2.04L60.28 79.1zm7.52-37.22l-3.64-3.63 2.27-2.27 3.64 3.63-2.28 2.27zm10.46 5.9l-2.28 2.28-3.63-3.64 2.27-2.27 3.64 3.63zm5.91 10.45l-3.63-3.64 2.27-2.27 3.64 3.63-2.28 2.28z"/><path fill-rule="evenodd" clip-rule="evenodd" d="M111.2 51.73L51.86 111.3a7.49 7.49 0 01-10.79 0l-5.65-5.66a3.77 3.77 0 01-.61-4.79c2.6-4.3 1.82-9.76-1.68-13.26a10.68 10.68 0 00-13.26-1.69c-1.5.9-3.5.7-4.8-.6l-3.97-3.97a7.49 7.49 0 010-10.79L70.56 11.1a7.49 7.49 0 0110.79 0l5.05 5.06c1.2 1.2 1.51 3 .8 4.63a10.7 10.7 0 002.1 12.34 10.72 10.72 0 0012.33 2.08 4.14 4.14 0 014.63.8l4.94 4.94a7.49 7.49 0 010 10.79zM94.43 64.02l14.53-14.53a4.33 4.33 0 00-.13-6.32l-5.33-5.33-.51.25a14.07 14.07 0 01-16.06-2.73A14.07 14.07 0 0184.2 19.3l.25-.5-5.46-5.47a4.29 4.29 0 00-6.19 0L58.4 27.98 62 31.6l-2.23 2.24-3.61-3.61-42.7 42.7a4.29 4.29 0 000 6.18l4.42 4.42.54-.34a13.63 13.63 0 0117.06 2.05 14.15 14.15 0 012.17 17.2l-.31.54 5.97 5.98a4.3 4.3 0 006.19 0l42.7-42.7-3.62-3.6 2.24-2.24 3.61 3.6z"/></svg></defs></svg>