<?xml version="1.0" encoding="utf-8"?><svg xmlns="http://www.w3.org/2000/svg" xmlns:xlink="http://www.w3.org/1999/xlink"><defs><svg viewBox="0 0 16 16" id="archive" xmlns="http://www.w3.org/2000/svg"><path d="M3.2 2.4a1.6 1.6 0 100 3.2h9.6a1.6 1.6 0 100-3.2H3.2z"/><path fill-rule="evenodd" clip-rule="evenodd" d="M2.4 6.4h11.2V12a1.6 1.6 0 01-1.6 1.6H4A1.6 1.6 0 012.4 12V6.4zm4 2.4a.8.8 0 01.8-.8h1.6a.8.8 0 010 1.6H7.2a.8.8 0 01-.8-.8z"/></svg><svg viewBox="0 0 20 20" id="arrow-right" xmlns="http://www.w3.org/2000/svg"><path d="M2.33 9.17v1.66h13l-4.58 4.59 1.18 1.18 6.6-6.6-6.6-6.6-1.18 1.18 4.58 4.59h-13z"/></svg><svg viewBox="0 0 16 16" id="auction" xmlns="http://www.w3.org/2000/svg"><path d="M9.33 13.33v1.34h-8v-1.34h8zM9.73.46l5.18 5.18-.94.95-.71-.24L11.61 8l3.77 3.77-.94.94-3.77-3.77-1.6 1.6.18.76-.94.94-5.19-5.18.95-.95.75.2 4.2-4.2-.24-.7.94-.95z"/></svg><svg viewBox="0 0 20 20" id="auction-line" xmlns="http://www.w3.org/2000/svg"><path d="M11.67 16.67v1.66h-10v-1.66h10zm.49-16.1l6.48 6.48-1.18 1.18-.88-.3L14.5 10l4.72 4.71-1.18 1.18-4.72-4.71-2 2 .24.95-1.18 1.17L3.9 8.82l1.17-1.18.95.24 5.24-5.25-.3-.88L12.17.57zm.58 2.95L6.85 9.4l2.95 2.95 5.89-5.9-2.95-2.94z"/></svg><svg viewBox="0 0 21 20" id="bag" xmlns="http://www.w3.org/2000/svg"><path d="M10.5 2.5a2.68 2.68 0 012.68 2.68v.53H7.82v-.53A2.68 2.68 0 0110.5 2.5zm3.75 3.21v-.53a3.75 3.75 0 00-7.5 0v.53H3v10.72a2.14 2.14 0 002.14 2.14h10.72A2.14 2.14 0 0018 16.43V5.7h-3.75z"/></svg><svg viewBox="0 0 22 27" id="bag-outline" xmlns="http://www.w3.org/2000/svg"><path fill-rule="evenodd" clip-rule="evenodd" d="M2.08 8.95c-.2 0-.33.15-.33.3v15.7c0 .15.13.3.33.3h17.84c.2 0 .33-.15.33-.3V9.25c0-.15-.13-.3-.33-.3H2.08zm-1.83.3c0-1 .83-1.8 1.83-1.8h17.84c1 0 1.83.8 1.83 1.8v15.7c0 1-.83 1.8-1.83 1.8H2.08c-1 0-1.83-.8-1.83-1.8V9.25z"/><path fill-rule="evenodd" clip-rule="evenodd" d="M4.86 6.37a6.13 6.13 0 0112.28 0v4.29a.75.75 0 11-1.5 0v-4.3A4.63 4.63 0 0011 1.76a4.63 4.63 0 00-4.64 4.62v4.29a.75.75 0 01-1.5 0v-4.3z"/></svg><svg viewBox="0 0 16 16" id="bell-line" xmlns="http://www.w3.org/2000/svg"><path d="M8 1.02a5.24 5.24 0 00-5.24 5.23v2.8l-1.12 2.8a.58.58 0 00.54.8h3.5a2.32 2.32 0 104.65 0h3.49a.58.58 0 00.54-.8l-1.12-2.8v-2.8A5.24 5.24 0 008 1.02zm1.16 11.64c0 .64-.51 1.16-1.16 1.16-.65 0-1.16-.52-1.16-1.16h2.32zm-5.23-6.4a4.07 4.07 0 118.14 0v2.9c0 .08.02.15.04.22l.85 2.11H3.04l.84-2.11a.58.58 0 00.05-.22v-2.9z"/></svg><svg viewBox="0 0 80 80" id="big-authentic" xmlns="http://www.w3.org/2000/svg"><path d="M46.96 42.58H27.89a3.89 3.89 0 013.87-3.87h15.3c1.93 0 3.77-1.38 3.95-3.4a3.93 3.93 0 00-3.87-4.42H31.76a3.89 3.89 0 01-3.87-3.87h19.25a7.72 7.72 0 017.74 8.2c-.18 4.14-3.78 7.36-7.92 7.36zM41.8 54.17H31.76a3.89 3.89 0 01-3.87-3.86h10.04a3.89 3.89 0 013.87 3.86zM8.46 28.86c-1.84-.82-2.12-2.48-1.57-3.86.56-1.38 1.75-1.93 2.95-1.57l-.46 1.1c-.55-.08-1.2.2-1.47.84-.37.92-.1 1.84 1 2.39 1.2.46 2.13.1 2.5-.83.36-.64.09-1.47-.37-1.75-.1-.09-.28 0-.28.1l-.46 1-.83-.36.65-1.47c.18-.46.73-.65 1.2-.46l2.02.92-.46 1-.83-.36c.46.37.55 1.1.28 1.84-.56 1.38-2.03 2.21-3.87 1.47zm4.97-8.09l-2.85-2.3.73-.93 2.86 2.3c.55.46 1.2.37 1.56-.18.47-.55.47-1.1-.18-1.56l-2.86-2.3.74-.93 2.86 2.3c1.1.93 1.1 2.12.27 3.23-.83 1-1.93 1.29-3.13.37zm8.84-7.46l-1.65 1.29.36 1.29-1 .73-1.67-5.98.92-.73 5.25 3.3-1 .74-1.2-.64zm-.92-.64l-1.65-1.1.55 1.92 1.1-.82zm9.95-2.4l-1.2.46-.64-1.29c-.19-.36-.55-.55-.92-.36l-1.02.36.74 1.94-1.2.46-2.11-5.43 2.3-.92c1.1-.46 2.12 0 2.48 1.01.19.55.1 1.01-.27 1.38.55.18.92.46 1.1.92l.74 1.47zm-4.14-1.75l1-.36c.56-.19.65-.65.47-1.02-.1-.46-.46-.73-1.01-.55l-1.02.37.56 1.56zm10.86-.73l-2.11.27-.28 1.3-1.29.08 1.57-5.98 1.2-.09 2.85 5.52-1.29.19-.65-1.3zm-.55-1.01l-.83-1.84-.46 2.02 1.3-.18zm6.36-3.5l1.29.18 1.65 4.14.65-3.77 1.2.18-.92 5.71-1.3-.18-1.65-4.14-.65 3.77-1.2-.19.93-5.7zm10.41 3.77l-1.57-.73.46-1.02 4.24 1.94-.46 1-1.57-.73-1.93 4.33-1.1-.55 1.93-4.24zm6.9 2.58l3.14 2.4-.65.82-2.12-1.66-.73 1.02 1.65 1.28-.64.83-1.66-1.29-.83 1.1 2.21 1.76-.73.83-3.23-2.49 3.6-4.6zm6.54 5.89l2.49 3.13-.83.64-1.66-2.2-.92.73 1.38 1.66-.92.73-1.38-1.65-1.01.82 1.75 2.21-.83.65-2.49-3.13 4.42-3.6zm5.07 7.27l.83 1.75c.64 1.47.37 3.13-1.48 3.96-1.84.82-3.22-.1-3.86-1.57l-.83-1.75 5.34-2.39zm-3.6 3.59c.38.83 1.2 1.56 2.4 1.01s1.3-1.56.92-2.48l-.27-.56-3.32 1.48.28.55zM11.68 61.17l-1.2-1.75-1.28.37-.74-1.02 5.99-1.56.64.92-3.5 5.15-.74-1 .83-1.11zm.65-.92l1.1-1.66-1.93.55.83 1.1zm3.4 4.32l2.4-2.76.92.74-2.4 2.76c-.45.55-.36 1.2.1 1.56.55.46 1.1.46 1.56-.09l2.4-2.76.92.74-2.4 2.76c-.92 1.1-2.11 1.01-3.22.18-1.01-.83-1.29-2.02-.28-3.13zm9.31 3.59l-1.57-.73.46-.92 4.15 2.11-.46.92-1.57-.73-2.12 4.23-1.1-.55 2.2-4.33zm10.59 2.49l-1.29 5.61-1.2-.28.56-2.39-2.3-.55-.56 2.4-1.2-.28 1.3-5.62 1.19.28-.55 2.2 2.3.56.55-2.2 1.2.27zm3.5.27l3.96-.09v1.1l-2.67.1v1.2h2.12v1.1h-2.12v1.38l2.76-.1v1.11l-4.05.1v-5.9zm7.27-.46l1.3-.37 3.22 3.04-1.01-3.68 1.2-.37 1.56 5.62-1.29.36-3.22-3.03 1.01 3.68-1.29.28-1.47-5.53zm9.5-2.39l-1.48.83-.55-.92 4.05-2.3.55.92-1.47.83 2.3 4.14-1.1.64-2.3-4.14zm4.41-4.23l.93-.83L65 67.43l-.92.82-3.78-4.41zm5.62-1.29c-1.56-1.2-1.56-2.85-.55-4.14.92-1.2 2.21-1.48 3.32-.83l-.83 1.01c-.56-.28-1.2-.1-1.66.46-.55.74-.46 1.75.46 2.49.92.73 1.93.55 2.49-.19.46-.55.46-1.29.09-1.75l.74-1c.92.82.92 2.2 0 3.4-.83 1.28-2.5 1.74-4.06.55zM6.7 45.43a2.12 2.12 0 10.01-4.24 2.12 2.12 0 000 4.24zm67.25 0a2.12 2.12 0 100-4.24 2.12 2.12 0 000 4.24z"/></svg><svg viewBox="0 0 122 122" id="big-bag" xmlns="http://www.w3.org/2000/svg"><path fill-rule="evenodd" clip-rule="evenodd" d="M76.84 38.77v-4.13a15.84 15.84 0 00-31.68 0v4.13h31.68zm3.46 0h20.5v57.37a10.52 10.52 0 01-10.52 10.52H31.71A10.52 10.52 0 0121.2 96.14V38.77h20.5v-4.13a19.3 19.3 0 0138.6 0v4.13zm-55.64 3.46v53.91a7.06 7.06 0 007.05 7.06h58.57a7.06 7.06 0 007.06-7.06V42.23H24.66z"/></svg><svg viewBox="0 0 122 122" id="big-experts" xmlns="http://www.w3.org/2000/svg"><path d="M94.55 46.67A1.67 1.67 0 0096 45V18.33a1.67 1.67 0 00-.62-1.28 1.67 1.67 0 00-1.38-.38s-1.88.38-4.67.9v-5.9a1.67 1.67 0 10-3.33 0v6.55c-8 1.46-19.81 3.45-25 3.45-5.18 0-17-1.99-25-3.45v-6.55a1.67 1.67 0 10-3.33 0v5.93c-2.78-.52-4.6-.93-4.66-.93a1.67 1.67 0 00-1.84.93c-.11.23-.17.48-.16.73V45a1.67 1.67 0 001.45 1.67l5.21.66V64l-4.78-.67A1.67 1.67 0 0026.01 65v10.3a.94.94 0 000 .25c.05.15.13.3.23.42v.11c.14.16.31.3.5.39l30.53 15.2-30.35 15.18a1.67 1.67 0 00.75 3.15c.27 0 .52-.06.75-.18L61 93.53l32.58 16.29a1.67 1.67 0 001.5-2.97L64.74 91.67l30.34-15.19c.2-.09.36-.22.5-.38v-.12c.1-.12.18-.26.24-.41a.95.95 0 000-.25c.07-.1.13-.2.18-.32V65a1.67 1.67 0 00-1.88-1.67l-4.79.64V47.3l5.22-.63zm-65.2-26.3C35.46 21.55 53.81 25 61 25c7.19 0 25.53-3.45 31.67-4.63v23.16c-5.44.7-24.65 3.14-31.67 3.14-7.01 0-26.23-2.44-31.66-3.14V20.37zm7.79 57.5C45.14 78.83 56 80 61 80s15.87-1.17 23.87-2.13L61 89.8 37.14 77.87zm55.53-4.34c-5.44.7-24.65 3.14-31.67 3.14-7.01 0-26.23-2.44-31.66-3.14v-6.66C35.36 67.68 53.87 70 61 70c7.14 0 25.65-2.32 31.67-3.1v6.63zM86 64.37c-8.01.98-19.81 2.3-25 2.3-5.18 0-16.98-1.32-25-2.3V47.7c8.08 1.02 19.7 2.3 25 2.3 5.32 0 16.94-1.28 25-2.27v16.64z"/></svg><svg viewBox="0 0 122 122" id="big-faq" xmlns="http://www.w3.org/2000/svg"><path fill-rule="evenodd" clip-rule="evenodd" d="M60.62 105.05l.03-1.2h.4l1.1.04 3.98.1c3.32.1 7.8.21 12.44.33 8.07.21 16.62.42 20.46.47l-2.9-17.7-.08-.49.28-.4a45.38 45.38 0 008.47-26.06c0-24.17-19.73-43.94-44.18-43.94S16.2 35.98 16.2 60.14c0 24.16 19.96 43.7 44.42 43.7h.03l-.03 1.2zm40.55-44.9c0 9.68-3.14 17.7-9.1 25.4l2.32 14.04.24 1.43-1.45-.03-32.59-.72c-22.55-.49-40.76-17.44-40.76-40.13 0-22.4 18.17-40.37 40.8-40.37a40.4 40.4 0 0140.54 40.37zm-35.03 2.73h-.02a6.43 6.43 0 00-3.8 5.62H58.7a9.82 9.82 0 015.82-8.94h.01l.01-.01a9.49 9.49 0 005.26-8.72c0-5.12-3.84-9.56-9.17-9.56-4.46 0-8 3.05-9.1 6.99l-3.46-1.28a13 13 0 0112.56-9.28c7.28 0 13.04 6.12 13.04 13.13 0 5.05-2.89 9.87-7.52 12.05zm-5.52 11.36a2.6 2.6 0 012.66 2.62 2.6 2.6 0 01-2.66 2.62c-1.62 0-2.9-1.24-2.9-2.62 0-1.38 1.28-2.62 2.9-2.62z"/></svg><svg viewBox="0 0 122 122" id="big-guide" xmlns="http://www.w3.org/2000/svg"><path fill-rule="evenodd" clip-rule="evenodd" d="M21.79 106.53V27.38c0-3.42 1.35-6.7 3.75-9.1a12.76 12.76 0 019.03-3.78h63.7c.4 0 .8.16 1.09.46.29.29.46.69.46 1.1v75.4c0 .41-.17.81-.46 1.1-.3.3-.69.46-1.1.46H34.58a9.68 9.68 0 00-6.85 2.86 9.77 9.77 0 00-2.84 6.88v2.2h65.9a1.58 1.58 0 010 3.14H23.32c-.4 0-.8-.16-1.09-.45-.29-.3-.45-.7-.45-1.12zm33.06-88.9v40.55l12.52-9.45a1.53 1.53 0 011.84 0l12.52 9.45V17.64H54.85zm41.87 72.25V17.64h-11.9V61.3a1.59 1.59 0 01-.85 1.4 1.53 1.53 0 01-1.61-.14L68.29 51.95l-14.06 10.6a1.53 1.53 0 01-2.24-.42 1.59 1.59 0 01-.23-.83V17.64H34.57a9.68 9.68 0 00-6.85 2.86 9.77 9.77 0 00-2.84 6.87v66.17l3.3-1.93a12.63 12.63 0 016.39-1.73h62.15z"/></svg><svg viewBox="0 0 122 122" id="big-heart" xmlns="http://www.w3.org/2000/svg"><path fill-rule="evenodd" clip-rule="evenodd" d="M58.13 29.35A30.12 30.12 0 0038.63 22c-10.68 0-19.09 6.17-23.07 16.93-9.07 24.51 23.85 46 37.9 55.16 1.88 1.22 3.96 2.58 4.9 3.3.2.16.35.28.44.37l1.97 2.24 2.19-2.02c.1-.09.32-.25.62-.45.71-.49 1.89-1.24 3.04-1.97 13.49-8.6 49.29-31.42 39.8-56.66-4.02-10.7-12.44-16.83-23.1-16.83-7.42 0-14.77 2.93-19.66 7.27a21.2 21.2 0 00-2.76 2.95 22.47 22.47 0 00-2.77-2.94zm2.92 65.07l1.08-.73 2.33-1.5h.01c6.78-4.33 18.7-11.94 27.77-21.47 9.2-9.68 14.32-20.07 10.44-30.41-3.5-9.29-10.52-14.24-19.36-14.24-7.9 0-15.56 3.84-19.24 8.65l-3.15 4.12-3.19-4.09C53.9 29.8 46.3 26 38.62 26c-8.84 0-15.85 4.97-19.31 14.32m41.74 54.1a48.95 48.95 0 00-2.01-1.44c-1.02-.7-2.26-1.5-3.39-2.24-7.07-4.62-18.4-12.03-26.87-21.2-8.56-9.25-13.2-19.15-9.47-29.22"/></svg><svg viewBox="0 0 122 122" id="big-item" xmlns="http://www.w3.org/2000/svg"><path fill-rule="evenodd" clip-rule="evenodd" d="M70.36 93.43l-1.3-.69L51.7 110.1h-3.74L9.63 71.74V68l49.94-49.94 1.96-.81h38.3l2.64 2.64v17.47l.89.6a32.35 32.35 0 0114.36 26.81 29.94 29.94 0 01-.36 3.53l-.01.06v.05a32.17 32.17 0 01-47 25.02zm25.8-59.07l2.68.95V20.87H61.88l-49 49 36.96 36.96 17.05-17.06.14-.27c.18-.34.46-.62.8-.8l.27-.14 30.74-30.73v-18.4l-1.15-.53a28.69 28.69 0 00-12.29-2.77 1.81 1.81 0 010-3.63c3.67 0 7.31.63 10.77 1.86zm9.73 10.38l-3.43-3.5v16.95l-.8 1.96-30.03 30.03 2.75 1.15a28.6 28.6 0 0039.3-22.4c.23-1.34.37-2.7.4-4.06v-.06a28.7 28.7 0 00-8.19-20.07z"/></svg><svg viewBox="0 0 122 122" id="big-payment-plans" xmlns="http://www.w3.org/2000/svg"><path fill-rule="evenodd" clip-rule="evenodd" d="M78.46 40.35L62 7 45.54 40.35l-36.8 5.34 26.63 25.96-6.29 36.66L62 91l32.92 17.3-6.29-36.65 26.63-25.96-36.8-5.34zm30.35 7.44l-32.34-4.7L62 13.78 47.53 43.09l-32.34 4.7 23.4 22.82-5.52 32.21L62 87.62l28.93 15.2-5.52-32.21 23.4-22.82z"/><path d="M68.73 65.77c0-7.1-9.91-4.08-9.91-8.1 0-1.28 1.12-2.11 2.91-2.11 1.93 0 3.17 1.06 3.33 2.65h3.28c-.13-2.89-2.03-4.94-4.97-5.46v-2.29h-2.78v2.21c-3.07.39-5.12 2.31-5.12 5 0 6.96 9.77 4.26 9.77 8.16 0 1.6-1.35 2.39-3.3 2.39-2.18 0-3.54-1.3-3.72-3.33h-3.3a6.26 6.26 0 005.67 6.21v2.3l2.78.02V71.1c3.22-.41 5.36-2.36 5.36-5.33z"/></svg><svg viewBox="0 0 122 122" id="big-pig" xmlns="http://www.w3.org/2000/svg"><path d="M51.56 43.94h22.69v3.62H51.56v-3.62z"/><path fill-rule="evenodd" clip-rule="evenodd" d="M100.86 49.64l.07 1.92h9.63a1.81 1.81 0 011.81 1.81v19.07a1.81 1.81 0 01-1.8 1.81h-9.97l-.32 1.62a17.42 17.42 0 01-9.64 12.44l-1.14.54v14.09a1.81 1.81 0 01-1.81 1.81H72.44a1.81 1.81 0 01-1.81-1.81V93.3H55.19v9.63a1.81 1.81 0 01-1.81 1.81H38.12a1.81 1.81 0 01-1.8-1.81V88.76l-.88-.6A32.97 32.97 0 0121.32 64.6l-.2-1.78h-2.06a9.45 9.45 0 01-9.43-9.44v-5.62h3.62v5.63a5.81 5.81 0 005.81 5.8h2l.19-1.79C22.98 40.47 37 28.7 57.19 28.7h18.46L90.4 17.6a1.81 1.81 0 012.9 1.45v15.6l.69.6a20.04 20.04 0 016.86 14.38zm7.89 20.98V55.2H97.32a129.36 129.36 0 01-.01-3.42c-.02-1.72-.11-3.47-.52-5.25-.8-3.48-2.77-6.7-7.1-10.22V22.7l-12.84 9.6H57.2c-7.92 0-16 2.15-22.16 6.84C28.81 43.9 24.7 51.15 24.7 61a28.74 28.74 0 0015.25 25.56v14.58h11.62V89.69h22.69v11.44h11.63V86.45c3.77-1.46 6.53-3.06 8.42-5.69 1.83-2.53 2.68-5.8 3.26-10.14h11.19z"/></svg><svg viewBox="0 0 122 122" id="big-star" xmlns="http://www.w3.org/2000/svg"><path fill-rule="evenodd" clip-rule="evenodd" d="M78.46 40.35L62 7 45.54 40.35l-36.8 5.34 26.63 25.96-6.29 36.66L62 91l32.92 17.3-6.29-36.65 26.63-25.96-36.8-5.34zm30.35 7.44l-32.34-4.7L62 13.78 47.53 43.09l-32.34 4.7 23.4 22.82-5.52 32.21L62 87.62l28.93 15.2-5.52-32.21 23.4-22.82z"/></svg><svg viewBox="0 0 122 122" id="big-star-fall" xmlns="http://www.w3.org/2000/svg"><path fill-rule="evenodd" clip-rule="evenodd" d="M31 9.5c.83 0 1.5.67 1.5 1.5v45a1.5 1.5 0 11-3 0V11c0-.83.67-1.5 1.5-1.5zm30 0c.83 0 1.5.67 1.5 1.5v22.5a1.5 1.5 0 11-3 0V11c0-.83.67-1.5 1.5-1.5zm30 0c.83 0 1.5.67 1.5 1.5v45a1.5 1.5 0 11-3 0V11c0-.83.67-1.5 1.5-1.5zm-30.5 32c.57 0 1.09.32 1.34.83l10.83 21.65 21.58 3.6a1.5 1.5 0 01.81 2.54L80.7 84.47l3.62 25.32a1.5 1.5 0 01-2.16 1.55L60.5 100.51l-21.66 10.83a1.5 1.5 0 01-2.16-1.55l3.62-25.32-14.36-14.35a1.5 1.5 0 01.81-2.54l21.58-3.6 10.83-21.65c.25-.5.77-.83 1.34-.83zm0 4.85L50.67 66a1.5 1.5 0 01-1.09.81l-19.46 3.25 12.83 12.82c.33.34.5.8.42 1.28l-3.31 23.22 19.77-9.89a1.5 1.5 0 011.34 0l19.77 9.89-3.31-23.22a1.5 1.5 0 01.42-1.28l12.83-12.82-19.46-3.25a1.5 1.5 0 01-1.1-.8L60.5 46.34z"/></svg><svg viewBox="0 0 122 122" id="big-ticket" xmlns="http://www.w3.org/2000/svg"><path fill-rule="evenodd" clip-rule="evenodd" d="M87.88 22.43a11.2 11.2 0 00-8.26 3.42 11.2 11.2 0 00-3.43 8.27A11.58 11.58 0 0087.9 45.8a11.2 11.2 0 008.26-3.43 11.2 11.2 0 003.42-8.26 11.58 11.58 0 00-11.69-11.7zm-5.94 5.66a8.36 8.36 0 016-2.44c2.3 0 4.33.83 5.96 2.45a8.24 8.24 0 012.45 6.02c0 2.34-.82 4.38-2.45 6.01a8.18 8.18 0 01-5.97 2.46 8.36 8.36 0 01-6-2.44 8.16 8.16 0 01-2.52-6.03c0-2.35.85-4.4 2.53-6.03z"/><path fill-rule="evenodd" clip-rule="evenodd" d="M70.35 8.99c-3.75 0-5.8.73-6.75 1.69L10.47 63.81c-1 1-1.48 2.17-1.48 3.6 0 .67.13 1.3.38 1.87.26.6.62 1.14 1.1 1.61l40.64 40.64.01.01.02.02a4.5 4.5 0 003.45 1.45c1.43 0 2.6-.48 3.6-1.48l53.13-53.13c.95-.95 1.7-3.05 1.7-6.96V15.43c0-1.77-.62-3.25-1.91-4.54a6.13 6.13 0 00-4.54-1.9H70.35zm-2.08 3.3c.32-.06.65-.08.97-.08h37.33a3.18 3.18 0 013.22 3.22v35.6c0 1.13-.02 2.07-.08 2.79-.03.35-.07.69-.13.98-.04.24-.13.64-.35 1.01l-.11.18-54.53 54.53L11.5 67.4l54.36-54.37a2.4 2.4 0 011.13-.62c.33-.08.66-.1.95-.1.11 0 .23-.02.34-.04z"/></svg><svg viewBox="0 0 122 122" id="big-user" xmlns="http://www.w3.org/2000/svg"><path fill-rule="evenodd" clip-rule="evenodd" d="M81.5 62.83a26.78 26.78 0 01-5.6 5.08 48.9 48.9 0 001.78-1.4 28.96 28.96 0 003.82-3.68zm-34.6 6.92l3.36-1.44-3.03-2.05a24.78 24.78 0 01-10.92-20.51c0-13.6 11.1-24.69 24.69-24.69 13.6 0 24.69 11.1 24.69 24.69 0 4.05-1 8.03-2.9 11.6-1.9 3.55-4.1 6-8.1 8.95l-2.78 2.07 3.2 1.38a36.28 36.28 0 0121.96 31.19h-3.63A32.44 32.44 0 0061 70.44a32.44 32.44 0 00-32.44 30.5h-3.63c.78-14 9.65-25.9 21.97-31.19zm35.16-24A21 21 0 0061 24.69a21 21 0 00-21.06 21.06A21 21 0 0061 66.81a21 21 0 0021.06-21.06z"/></svg><svg viewBox="0 0 122 122" id="big-vouchers" xmlns="http://www.w3.org/2000/svg"><path d="M51.86 53.46l17.09 16.97c.67.67.6 1.66-.05 2.17l-.06.05-.05.06c-.5.58-1.53.63-2.2-.04L49.6 55.68l-.02-.02c-.53-.46-.57-1.5.08-2.24.5-.57 1.53-.63 2.2.04zm8.42 25.64c.61.6.6 1.44-.03 2.16-.5.57-1.53.63-2.2-.04l-17-17-.01-.01c-.54-.47-.58-1.5.07-2.24.5-.58 1.53-.64 2.2.04L60.28 79.1zm7.52-37.22l-3.64-3.63 2.27-2.27 3.64 3.63-2.28 2.27zm10.46 5.9l-2.28 2.28-3.63-3.64 2.27-2.27 3.64 3.63zm5.91 10.45l-3.63-3.64 2.27-2.27 3.64 3.63-2.28 2.28z"/><path fill-rule="evenodd" clip-rule="evenodd" d="M111.2 51.73L51.86 111.3a7.49 7.49 0 01-10.79 0l-5.65-5.66a3.77 3.77 0 01-.61-4.79c2.6-4.3 1.82-9.76-1.68-13.26a10.68 10.68 0 00-13.26-1.69c-1.5.9-3.5.7-4.8-.6l-3.97-3.97a7.49 7.49 0 010-10.79L70.56 11.1a7.49 7.49 0 0110.79 0l5.05 5.06c1.2 1.2 1.51 3 .8 4.63a10.7 10.7 0 002.1 12.34 10.72 10.72 0 0012.33 2.08 4.14 4.14 0 014.63.8l4.94 4.94a7.49 7.49 0 010 10.79zM94.43 64.02l14.53-14.53a4.33 4.33 0 00-.13-6.32l-5.33-5.33-.51.25a14.07 14.07 0 01-16.06-2.73A14.07 14.07 0 0184.2 19.3l.25-.5-5.46-5.47a4.29 4.29 0 00-6.19 0L58.4 27.98 62 31.6l-2.23 2.24-3.61-3.61-42.7 42.7a4.29 4.29 0 000 6.18l4.42 4.42.54-.34a13.63 13.63 0 0117.06 2.05 14.15 14.15 0 012.17 17.2l-.31.54 5.97 5.98a4.3 4.3 0 006.19 0l42.7-42.7-3.62-3.6 2.24-2.24 3.61 3.6z"/></svg><svg viewBox="0 0 36 14" id="burger" xmlns="http://www.w3.org/2000/svg"><path fill-rule="evenodd" clip-rule="evenodd" d="M36 1.75H0V.25h36v1.5zm0 6H0v-1.5h36v1.5zm0 6H0v-1.5h36v1.5z"/></svg><svg viewBox="0 0 20 20" id="calendar" xmlns="http://www.w3.org/2000/svg"><path fill-rule="evenodd" clip-rule="evenodd" d="M6.67.92c.41 0 .75.33.75.75v.91h5.16v-.91a.75.75 0 111.5 0v.91H15a4.08 4.08 0 014.08 4.09V15A4.08 4.08 0 0115 19.08H5A4.08 4.08 0 01.92 15V6.67A4.08 4.08 0 015 2.58h.92v-.91c0-.42.33-.75.75-.75zm-.75 3.16H5a2.58 2.58 0 00-2.58 2.59v.91h15.16v-.91A2.58 2.58 0 0015 4.08h-.92V5a.75.75 0 01-1.5 0v-.92H7.42V5a.75.75 0 11-1.5 0v-.92zm11.66 5H2.42V15A2.58 2.58 0 005 17.58h10A2.58 2.58 0 0017.58 15V9.08z"/></svg><svg viewBox="0 0 20 20" id="clean" xmlns="http://www.w3.org/2000/svg"><path fill-rule="evenodd" clip-rule="evenodd" d="M10 20a10 10 0 100-20 10 10 0 000 20zm0-8.94l-3.32 3.32-1.06-1.06L8.94 10 5.62 6.68l1.06-1.06L10 8.94l3.32-3.32 1.06 1.06L11.06 10l3.32 3.32-1.06 1.06L10 11.06z"/></svg><svg viewBox="0 0 20 20" id="clock" xmlns="http://www.w3.org/2000/svg"><path d="M10 1.25a8.75 8.75 0 100 17.5 8.75 8.75 0 000-17.5zm3.45 11.44l-.56.76a.16.16 0 01-.22.03l-3.23-2.35a.15.15 0 01-.06-.13V5.62c0-.08.07-.15.15-.15h.94c.09 0 .16.07.16.16v4.83l2.78 2.01c.07.05.09.15.04.22z"/></svg><svg viewBox="0 0 16 16" id="clockwise" xmlns="http://www.w3.org/2000/svg"><path d="M8.75 5v2.57l2.22 1.28a.75.75 0 11-.75 1.3l-2.6-1.5-.01-.01a.76.76 0 01-.04-.03l-.03-.02-.03-.02a.74.74 0 01-.03-.03l-.02-.02a.76.76 0 01-.2-.42v-.08L7.24 8V5a.75.75 0 011.5 0zm5.4 1.97l.04-.01.04-.01.03-.01.04-.01.03-.02.03-.02.03-.01.04-.02.03-.03.03-.02a.75.75 0 00.1-.1l.02-.03.02-.03.02-.03.02-.03.02-.04.01-.03.02-.03v-.04l.02-.03v-.04l.01-.04V6.3l.01-.08v-2.5a.75.75 0 10-1.5 0v.7l-.84-.85a6.25 6.25 0 100 8.84.75.75 0 00-1.06-1.06 4.75 4.75 0 110-6.72l.84.84h-.69a.75.75 0 000 1.5h2.61l.04-.01z"/></svg><svg viewBox="0 0 16 16" id="close" xmlns="http://www.w3.org/2000/svg"><path fill-rule="evenodd" clip-rule="evenodd" d="M1.47 1.47c.3-.3.77-.3 1.06 0L8 6.94l5.47-5.47a.75.75 0 111.06 1.06L9.06 8l5.47 5.47a.75.75 0 11-1.06 1.06L8 9.06l-5.47 5.47a.75.75 0 01-1.06-1.06L6.94 8 1.47 2.53a.75.75 0 010-1.06z"/></svg><svg viewBox="0 0 16 16" id="drop" xmlns="http://www.w3.org/2000/svg"><path fill-rule="evenodd" clip-rule="evenodd" d="M14.53 5.47a.75.75 0 00-1.06 0L8 10.94 2.53 5.47a.75.75 0 00-1.06 1.06l6 6c.3.3.77.3 1.06 0l6-6c.3-.3.3-.77 0-1.06z"/></svg><svg viewBox="0 0 24 24" id="email" xmlns="http://www.w3.org/2000/svg"><path d="M6 4.5a3 3 0 00-3 3v.3l9 4.85 9-4.85v-.3a3 3 0 00-3-3H6z"/><path d="M21 9.5l-8.64 4.66a.75.75 0 01-.72 0L3 9.51v6.99a3 3 0 003 3h12a3 3 0 003-3v-7z"/></svg><svg viewBox="0 0 10 18" id="facebook" xmlns="http://www.w3.org/2000/svg"><path d="M6.4 18V9.8h2.76l.41-3.2H6.4V4.54c0-.93.26-1.56 1.58-1.56h1.69V.13C8.85.03 8.03 0 7.2 0 4.76 0 3.08 1.5 3.08 4.23V6.6H.33v3.2H3.1V18h3.3z"/></svg><svg viewBox="0 0 20 20" id="file-pdf" xmlns="http://www.w3.org/2000/svg"><path d="M6.9 13.03l.58-.3c-.18.26-.37.52-.56.76a2.54 2.54 0 01-.84.73.35.35 0 01-.03-.06c-.07-.13-.07-.27.05-.45.13-.2.4-.44.8-.68zm3.07-2.06l-.44.1c.22-.43.43-.87.62-1.31.2.36.41.72.64 1.07l-.82.14zm3.16 1.17c-.2-.15-.38-.32-.54-.5.28 0 .54.02.76.06.4.07.58.18.65.26.02.02.03.05.03.08 0 .09-.03.18-.07.25a.38.38 0 01-.12.16.13.13 0 01-.09.02c-.11 0-.32-.09-.62-.33zm-2.78-5.93c-.05.3-.14.66-.25 1.04a6.13 6.13 0 01-.11-.43c-.1-.45-.11-.8-.06-1.03.05-.22.14-.31.24-.36a.65.65 0 01.19-.04c.01.03.03.11.04.24 0 .16-.01.35-.05.58z"/><path fill-rule="evenodd" clip-rule="evenodd" d="M5 0h10a2.5 2.5 0 012.5 2.5v15A2.5 2.5 0 0115 20H5a2.5 2.5 0 01-2.5-2.5v-15A2.5 2.5 0 015 0zm.2 14.59c.12.22.3.42.55.52.26.1.52.05.73-.04.4-.16.8-.54 1.16-.98.41-.5.85-1.16 1.27-1.89.82-.24 1.65-.41 2.5-.5.37.47.76.89 1.14 1.18.35.28.75.5 1.16.52.23.01.45-.05.64-.17.2-.13.34-.3.44-.52.12-.23.19-.46.18-.7-.01-.24-.1-.47-.25-.65-.29-.34-.75-.5-1.2-.58a7.2 7.2 0 00-1.67-.06 13.7 13.7 0 01-1.23-2.11c.32-.83.55-1.6.65-2.24.05-.28.07-.54.06-.77 0-.24-.05-.47-.16-.67a.87.87 0 00-.6-.46 1.3 1.3 0 00-.74.1c-.47.18-.72.58-.82 1.02-.09.43-.05.92.06 1.42.11.51.3 1.06.54 1.62-.39.96-.83 1.89-1.33 2.79-.64.2-1.27.47-1.85.8-.46.28-.88.6-1.12.99-.27.4-.35.89-.1 1.38z"/></svg><svg viewBox="0 0 16 16" id="flag" xmlns="http://www.w3.org/2000/svg"><path d="M3 15H2V1h12l-2.9 4.5L14 10H3v5z"/></svg><svg viewBox="0 0 512 512" id="flag-uk" xmlns="http://www.w3.org/2000/svg"><circle cx="256" cy="256" r="256" fill="#f0f0f0"/><path d="M53 100c-20 26-35 56-44 89h133l-89-89zm450 89c-9-33-24-63-44-89l-89 89h133zM9 323c9 33 24 63 44 89l89-89H9zM412 53c-26-20-56-35-89-44v133l89-89zM100 459c26 20 56 35 89 44V370l-89 89zM189 9c-33 9-63 24-89 44l89 89V9zm134 494c33-9 63-24 89-44l-89-89v133zm47-180l89 89c20-26 35-56 44-89H370z" fill="#0052b4"/><g fill="#d80027"><path d="M510 223H289V2a259 259 0 00-66 0v221H2a259 259 0 000 66h221v221a259 259 0 0066 0V289h221a259 259 0 000-66z"/><path d="M323 323l114 114 15-16-98-98h-31zm-134 0L75 437l16 15 98-98v-31zm0-134L75 75 60 91l98 98h31zm134 0L437 75l-16-15-98 98v31z"/></g></svg><svg viewBox="0 0 512 512" id="flag-usa" xmlns="http://www.w3.org/2000/svg"><circle cx="256" cy="256" r="256" fill="#f0f0f0"/><path d="M244.87 256H512c0-23.1-3.08-45.49-8.82-66.78H244.87V256zm0-133.56h229.56a257.35 257.35 0 00-59.07-66.79H244.87v66.78zM256 512a254.9 254.9 0 00159.36-55.65H96.64A254.9 254.9 0 00256 512zM37.57 389.56h436.86a254.47 254.47 0 0028.75-66.78H8.82a254.47 254.47 0 0028.75 66.79z" fill="#d80027"/><path d="M118.58 39.98h23.33l-21.7 15.76 8.3 25.51-21.7-15.76-21.7 15.76 7.15-22.04a257.4 257.4 0 00-49.65 55.34h7.48L36.27 124.6a255.58 255.58 0 00-6.19 10.94l6.6 20.3-12.31-8.95A253.57 253.57 0 0016 166.76l7.27 22.37h26.82l-21.7 15.76 8.29 25.51-21.7-15.77-13 9.45A258.47 258.47 0 000 256h256V0a254.79 254.79 0 00-137.42 39.98zm9.92 190.42l-21.7-15.77-21.7 15.77 8.3-25.5-21.7-15.77h26.8l8.3-25.51 8.28 25.5h26.82l-21.7 15.77 8.3 25.51zm-8.29-100.08l8.3 25.5-21.7-15.76-21.7 15.77 8.28-25.51-21.7-15.77h26.82l8.3-25.5 8.28 25.5h26.82l-21.7 15.77zM220.33 230.4l-21.7-15.77-21.7 15.77 8.29-25.5-21.7-15.77h26.82l8.29-25.51 8.29 25.5h26.82l-21.7 15.77 8.29 25.51zm-8.3-100.08l8.3 25.5-21.7-15.76-21.7 15.77 8.29-25.51-21.7-15.77h26.82l8.29-25.5 8.29 25.5h26.82l-21.7 15.77zm0-74.58l8.3 25.51-21.7-15.76-21.7 15.76 8.29-25.5-21.7-15.77h26.82l8.29-25.51 8.29 25.5h26.82l-21.7 15.77z" fill="#0052b4"/></svg><svg viewBox="0 0 24 24" id="follow-facebook" xmlns="http://www.w3.org/2000/svg"><path d="M22 12a10 10 0 10-12 9.8V15H8v-3h2V9.5A3.5 3.5 0 0113.5 6H16v3h-2a1 1 0 00-1 1v2h3v3h-3v6.95A10 10 0 0022 12z"/></svg><svg viewBox="0 0 24 24" id="follow-instagram" xmlns="http://www.w3.org/2000/svg"><path d="M12 8.88a3.13 3.13 0 000 6.24 3.13 3.13 0 000-6.24zM21.37 12c0-1.3.01-2.58-.06-3.87-.07-1.5-.42-2.83-1.51-3.93-1.1-1.1-2.43-1.43-3.93-1.5-1.3-.08-2.58-.07-3.87-.07-1.3 0-2.57-.01-3.86.06-1.5.08-2.84.42-3.93 1.51C3.1 5.3 2.77 6.63 2.7 8.13c-.08 1.3-.07 2.58-.07 3.87 0 1.3 0 2.58.07 3.87.07 1.5.41 2.83 1.5 3.93 1.1 1.1 2.44 1.43 3.94 1.5 1.29.08 2.57.07 3.86.07 1.3 0 2.58.01 3.87-.06 1.5-.08 2.83-.42 3.93-1.51 1.1-1.1 1.44-2.43 1.5-3.93.08-1.3.07-2.58.07-3.87zM12 16.8a4.8 4.8 0 11-.01-9.6 4.8 4.8 0 01.01 9.6zm5-8.68a1.12 1.12 0 110-2.24 1.12 1.12 0 010 2.24z"/></svg><svg viewBox="0 0 24 24" id="follow-linkedin" xmlns="http://www.w3.org/2000/svg"><path d="M19.66 3H4.34A1.34 1.34 0 003 4.3v15.35a1.33 1.33 0 001.34 1.3h15.32a1.33 1.33 0 001.34-1.3V4.3A1.34 1.34 0 0019.66 3zM8.33 18.3H5.7V9.76h2.64v8.56zM7.04 8.57a1.55 1.55 0 01-1.11-2.63 1.5 1.5 0 011.11-.44 1.55 1.55 0 010 3.1v-.03zm11.32 9.7h-2.61v-4.19c0-1 0-2.3-1.4-2.3-1.39 0-1.6 1.1-1.6 2.2v4.24h-2.67V9.75h2.49v1.13h.05a2.79 2.79 0 012.54-1.4c2.7 0 3.2 1.8 3.2 4.09v4.68z"/></svg><svg viewBox="0 0 24 24" id="follow-twitter" xmlns="http://www.w3.org/2000/svg"><path d="M22.5 6l-2.25.37 1.5-1.87-2.63.75C15.75 1.5 10.5 5.62 12 9 6 9 3 4.5 3 4.5s-2.25 3.37 1.5 6l-2.25-.75c0 2.25 1.5 3.75 4.13 4.5H3.75c1.5 3 4.13 3 4.13 3s-2.25 1.87-6.38 1.87c12.38 6 19.88-5.25 18.75-11.25L22.5 6z"/></svg><svg viewBox="0 0 21 20" id="globe" xmlns="http://www.w3.org/2000/svg"><path d="M10.5 1.88a8.13 8.13 0 000 16.25 8.13 8.13 0 000-16.25zm0 1.25c.21 0 .42 0 .63.03v1.21H9.87l-.62 1.88h-.63v.63h3.13l.63.62H13v.63l-.63.62-2.5-.63L7.38 10v1.88l1.25 1.24h1.88v1.57l.63 1.56h.62l1.88-2.5v-.63l.62-1.24v-.63h-.63L13 10l.63-.63.93.63 1.56-.63v-.62h1.14A6.87 6.87 0 113.62 10c0-3.8 3.09-6.88 6.88-6.88z"/></svg><svg viewBox="0 0 20 20" id="heart" xmlns="http://www.w3.org/2000/svg"><path fill-rule="evenodd" clip-rule="evenodd" d="M10 4.38a5.92 5.92 0 00-3.63-1.46 4.44 4.44 0 00-3.73 1.74c-1.14 1.44-.96 3.84.34 6.25A14.13 14.13 0 0010 17.12a14.27 14.27 0 007.04-6.21c1.28-2.41 1.46-4.81.32-6.25a4.44 4.44 0 00-3.73-1.74A5.92 5.92 0 0010 4.38zm6.19 1.21a2.95 2.95 0 00-2.52-1.17c-.97.03-1.96.46-2.68 1.09l-.99.86-.99-.86a4.43 4.43 0 00-2.68-1.1c-.94-.02-1.8.3-2.52 1.18-.57.73-.71 2.38.49 4.6v.02a12.52 12.52 0 005.7 5.27c2.7-1.3 4.65-3.3 5.72-5.28 1.18-2.22 1.04-3.88.47-4.6z"/></svg><svg viewBox="0 0 20 20" id="heart-fill" xmlns="http://www.w3.org/2000/svg"><path d="M10 17.12a14.27 14.27 0 007.04-6.21c1.28-2.41 1.46-4.81.32-6.25a4.44 4.44 0 00-3.73-1.74A5.92 5.92 0 0010 4.38a5.92 5.92 0 00-3.63-1.46 4.44 4.44 0 00-3.73 1.74c-1.14 1.44-.96 3.84.34 6.25A14.13 14.13 0 0010 17.12z"/></svg><svg viewBox="0 0 16 16" id="i" xmlns="http://www.w3.org/2000/svg"><path d="M8 1a7 7 0 100 14A7 7 0 008 1zm.5 10.38c0 .06-.06.12-.13.12h-.74a.13.13 0 01-.13-.13V7.13c0-.07.06-.13.13-.13h.75c.06 0 .12.06.12.13v4.25zM8 6a.75.75 0 010-1.5A.75.75 0 018 6z"/></svg><svg viewBox="0 0 16 16" id="live" xmlns="http://www.w3.org/2000/svg"><path d="M10.5 8a2.5 2.5 0 11-5 0 2.5 2.5 0 015 0zM5.17 5.17a.5.5 0 10-.7-.7 5 5 0 000 7.07.5.5 0 10.7-.71 4 4 0 010-5.66zM13 8a4.99 4.99 0 00-1.46-3.54.5.5 0 10-.71.71 4 4 0 010 5.66.5.5 0 00.7.7A4.99 4.99 0 0013 8zM2.01 10.53a6.5 6.5 0 011.4-7.13.5.5 0 10-.71-.7 7.5 7.5 0 000 10.6.5.5 0 10.7-.7 6.73 6.73 0 01-1.39-2.07zm12.9-5.45c-.38-.9-.92-1.7-1.6-2.38a.5.5 0 10-.71.7 6.5 6.5 0 010 9.2.5.5 0 10.7.7 7.5 7.5 0 001.61-8.22z"/></svg><svg viewBox="0 0 20 20" id="location" xmlns="http://www.w3.org/2000/svg"><path d="M10 0a8.57 8.57 0 018.57 8.57c0 4.1-2.76 7.87-8.19 11.32a.71.71 0 01-.76 0c-5.43-3.45-8.2-7.22-8.2-11.32A8.57 8.57 0 0110 0zm0 1.43a7.14 7.14 0 00-7.14 7.14c0 3.32 2.2 6.51 6.68 9.56l.46.3.46-.3c4.48-3.05 6.68-6.24 6.68-9.56A7.14 7.14 0 0010 1.43zm0 5a2.14 2.14 0 110 4.28 2.14 2.14 0 010-4.28z"/></svg><svg viewBox="0 0 20 20" id="lock" xmlns="http://www.w3.org/2000/svg"><path d="M15 6.67h-.83v-.84a4.17 4.17 0 00-8.34 0v.84H5a1.67 1.67 0 00-1.67 1.66v8.34A1.67 1.67 0 005 18.33h10a1.67 1.67 0 001.67-1.66V8.33A1.67 1.67 0 0015 6.67zm-7.5-.84a2.5 2.5 0 015 0v.84h-5v-.84zm3.33 7.27V15H9.17v-1.9A1.66 1.66 0 0110 10a1.67 1.67 0 01.83 3.1z"/></svg><svg viewBox="0 0 12 12" id="ok" xmlns="http://www.w3.org/2000/svg"><path d="M10.25.7l-5.5 7.25L1.5 4.7 0 6.2l5 5 7-9L10.25.7z"/></svg><svg viewBox="0 0 45 32" id="pay-amex" xmlns="http://www.w3.org/2000/svg"><path fill-rule="evenodd" clip-rule="evenodd" d="M0 2.09C0 .93.92 0 2.05 0h40.9C44.08 0 45 .94 45 2.09V29.9c0 1.16-.92 2.09-2.05 2.09H2.05A2.07 2.07 0 010 29.91V2.1z" fill="#fff"/><path d="M11.57 11.83l2.55 6.47v-6.47h2.66l2.01 4.88 1.99-4.88h2.66v7.65h-1.79V14.4l-2.03 5.07H18l-2.23-5.53v5.53h-3.3l-.65-1.7h-3.1l-.6 1.7H6.14l2.9-7.65h2.53zm20.53 0l1.85 2.3 1.89-2.3h2.34l-3.07 3.82 3.07 3.83h-2.34l-1.92-2.42-1.97 2.42h-7.18v-7.65h7.33zm-1.9.6v1.14h-3.72v1.21h3.72v1.73h-3.72v1.2h3.72v1l2.57-3.06-2.57-3.23zm-19.96 1.06l-.9 2.54h1.84l-.94-2.54z" fill="#016FD0"/></svg><svg viewBox="0 0 21 20" id="pay-card" xmlns="http://www.w3.org/2000/svg"><path d="M1.93 5.54a1.96 1.96 0 011.96-1.97h13.22a1.96 1.96 0 011.96 1.97v1.6H1.93v-1.6zm0 2.67h17.14v5.54a1.96 1.96 0 01-1.96 1.96H3.89a1.96 1.96 0 01-1.96-1.96V8.21zm11.78 3.5a.64.64 0 100 1.29h2.15a.64.64 0 100-1.29H13.7z"/></svg><svg viewBox="0 0 45 32" id="pay-maestro" xmlns="http://www.w3.org/2000/svg"><path fill-rule="evenodd" clip-rule="evenodd" d="M0 2.09C0 .93.92 0 2.05 0h40.9C44.08 0 45 .94 45 2.09V29.9c0 1.16-.92 2.09-2.05 2.09H2.05A2.07 2.07 0 010 29.91V2.1z" fill="#fff"/><path d="M25.64 10.1h-6.2v11.47h6.2V10.1z" fill="#7673C0"/><path fill-rule="evenodd" clip-rule="evenodd" d="M19.84 15.84c0-2.24 1-4.35 2.7-5.73a6.92 6.92 0 00-9.56.78 7.46 7.46 0 000 9.9 6.92 6.92 0 009.56.78 7.36 7.36 0 01-2.7-5.73z" fill="#EB001B"/><path d="M33.31 20.63v-.46h.1v-.1h-.24v.1h.1v.46h.04zm.46 0v-.56h-.08l-.08.4-.08-.4h-.07v.56h.05v-.42l.07.37h.06l.07-.37v.43h.06z" fill="#00A1DF"/><path fill-rule="evenodd" clip-rule="evenodd" d="M33.98 15.84c0 2.79-1.54 5.33-3.98 6.55a6.9 6.9 0 01-7.46-.82 7.37 7.37 0 002.7-5.73c0-2.24-1-4.35-2.7-5.74A6.9 6.9 0 0130 9.28a7.31 7.31 0 013.98 6.56z" fill="#00A1DF"/></svg><svg viewBox="0 0 45 32" id="pay-mastercard" xmlns="http://www.w3.org/2000/svg"><path fill-rule="evenodd" clip-rule="evenodd" d="M0 2.09C0 .93.92 0 2.05 0h40.9C44.08 0 45 .94 45 2.09V29.9c0 1.16-.92 2.09-2.05 2.09H2.05A2.07 2.07 0 010 29.91V2.1z" fill="#fff"/><path d="M26.58 10.1h-7.34v11.77h7.34V10.1z" fill="#FF5F00"/><path fill-rule="evenodd" clip-rule="evenodd" d="M20 15.99c0-2.3 1.07-4.47 2.91-5.88a7.73 7.73 0 00-10.31.8 7.38 7.38 0 000 10.16 7.73 7.73 0 0010.31.8A7.42 7.42 0 0120 16z" fill="#EB001B"/><path d="M34.53 20.93v-.5h.12v-.1h-.28v.1h.11v.5h.05zm.54 0v-.6H35l-.1.43-.1-.42h-.08v.59h.06v-.45l.09.38h.06l.1-.38v.45h.05z" fill="#F79E1B"/><path fill-rule="evenodd" clip-rule="evenodd" d="M35.24 15.99a7.47 7.47 0 01-4.29 6.73 7.74 7.74 0 01-8.04-.85A7.44 7.44 0 0025.82 16c0-2.3-1.07-4.47-2.91-5.89a7.74 7.74 0 018.04-.84 7.47 7.47 0 014.3 6.73z" fill="#F79E1B"/></svg><svg viewBox="0 0 45 32" id="pay-paypal" xmlns="http://www.w3.org/2000/svg"><path fill-rule="evenodd" clip-rule="evenodd" d="M0 2.09C0 .93.92 0 2.05 0h40.9C44.08 0 45 .94 45 2.09V29.9c0 1.16-.92 2.09-2.05 2.09H2.05A2.07 2.07 0 010 29.91V2.1z" fill="#fff"/><path fill-rule="evenodd" clip-rule="evenodd" d="M17.88 8.35h5c1.41 0 3.08.04 4.2.98a3.13 3.13 0 011.05 2.69c-.3 3.62-2.6 5.65-5.66 5.65h-2.46c-.42 0-.7.27-.82.98l-.69 4.16c-.04.27-.17.43-.4.44h-3.07c-.34 0-.47-.24-.38-.78l2.22-13.33c.1-.54.4-.8 1.01-.8z" fill="#1B3D92"/><path fill-rule="evenodd" clip-rule="evenodd" d="M21.1 12.52h5c2.68 0 3.69 1.29 3.53 3.19-.26 3.12-2.25 4.85-4.89 4.85h-1.33c-.36 0-.6.23-.7.85l-.58 3.58c-.04.23-.16.37-.36.39h-3.13c-.3 0-.4-.22-.32-.68l1.9-11.5c.09-.46.35-.68.88-.68z" fill="#00A2D3"/><path fill-rule="evenodd" clip-rule="evenodd" d="M19.02 18.45l.87-5.25c.08-.46.35-.68.88-.68h5c.82 0 1.49.12 2.01.35-.5 3.23-2.7 5.02-5.58 5.02h-2.47c-.32 0-.56.16-.7.56z" fill="#1B2E7F"/></svg><svg viewBox="0 0 45 32" id="pay-visa" xmlns="http://www.w3.org/2000/svg"><path fill-rule="evenodd" clip-rule="evenodd" d="M0 2.09C0 .93.92 0 2.05 0h40.9C44.08 0 45 .94 45 2.09V29.9c0 1.16-.92 2.09-2.05 2.09H2.05A2.07 2.07 0 010 29.91V2.1z" fill="#fff"/><path fill-rule="evenodd" clip-rule="evenodd" d="M19.98 20.7h-2.47l1.55-9.28h2.47l-1.55 9.27zm8.97-9.06a6.27 6.27 0 00-2.22-.4c-2.44 0-4.16 1.27-4.17 3.08-.02 1.33 1.23 2.07 2.17 2.51.95.46 1.28.75 1.28 1.16-.01.62-.77.9-1.49.9-.98 0-1.51-.14-2.32-.49l-.32-.15-.35 2.09c.58.25 1.65.48 2.76.49 2.6 0 4.29-1.24 4.3-3.17.02-1.05-.65-1.86-2.07-2.52-.87-.43-1.4-.71-1.4-1.15.01-.4.45-.8 1.43-.8.8-.02 1.4.17 1.84.36l.23.1.33-2z" fill="#0742A6"/><path d="M32.24 17.4l.99-2.59.32-.89.18.8s.46 2.22.57 2.69h-2.06zm3.05-5.98h-1.91c-.6 0-1.04.16-1.3.77l-3.67 8.5h2.6l.52-1.39h3.17l.3 1.4h2.29l-2-9.28z" fill="#0742A6"/><path fill-rule="evenodd" clip-rule="evenodd" d="M15.44 11.42l-2.42 6.32-.26-1.28a7.16 7.16 0 00-3.42-3.89l2.21 8.11h2.62l3.89-9.26h-2.62z" fill="#0742A6"/><path fill-rule="evenodd" clip-rule="evenodd" d="M10.77 11.42H6.8l-.04.18c3.1.77 5.16 2.63 6 4.86l-.86-4.26c-.14-.6-.58-.76-1.12-.78z" fill="#0742A6"/></svg><svg viewBox="0 0 100 100" id="play-circle" xmlns="http://www.w3.org/2000/svg"><path d="M50 6.25a43.75 43.75 0 100 87.5 43.75 43.75 0 000-87.5zm14.07 44.42L42.74 66.2a.78.78 0 01-1.24-.63V34.54a.78.78 0 011.24-.63l21.33 15.5a.77.77 0 010 1.26z"/></svg><svg viewBox="0 0 20 20" id="plus" xmlns="http://www.w3.org/2000/svg"><path fill-rule="evenodd" clip-rule="evenodd" d="M10 2.33a1 1 0 011 1V9h5.67a1 1 0 110 2H11v5.67a1 1 0 11-2 0V11H3.33a1 1 0 110-2H9V3.33a1 1 0 011-1z"/></svg><svg viewBox="0 0 201 46" id="propstore" xmlns="http://www.w3.org/2000/svg"><path d="M13.53.85c6.9 0 11.4 4.14 11.4 10.61 0 6.42-4.5 10.61-11.4 10.61H4.57v13.26H.27V.85h13.26zm-8.96 17.3h8.59c4.5 0 7.43-2.6 7.43-6.69 0-4.08-2.87-6.63-7.38-6.63H4.57v13.32zm36.13-7.96v3.92h-2.02c-5.26 0-6.69 4.4-6.69 8.39v12.83h-4.03V10.2h3.5l.53 3.77c1.17-1.91 3.08-3.77 7.59-3.77h1.11zm.63 12.57c0-7.64 5.14-12.84 12.46-12.84 7.32 0 12.47 5.2 12.47 12.84S61.11 35.6 53.79 35.6s-12.46-5.2-12.46-12.84zm20.8 0c0-5.36-3.35-9.28-8.34-9.28-4.98 0-8.32 3.87-8.32 9.28 0 5.41 3.34 9.28 8.32 9.28 5 0 8.33-3.92 8.33-9.28zm32.14 0c0 7.7-5.15 12.84-12.04 12.84-4.25 0-7.11-1.7-8.6-4.14v13.69H69.6V10.19h3.5l.53 4.03c1.7-2.33 4.4-4.35 8.6-4.35 6.9.05 12.04 4.72 12.04 12.9zm-4.14 0c0-5.46-3.34-9.28-8.33-9.28-4.93 0-8.27 3.76-8.27 9.18 0 5.51 3.34 9.33 8.27 9.33 4.99.05 8.33-3.76 8.33-9.23zm10.93 4.3c.16 2.97 2.81 5.14 6.9 5.14 3.5 0 5.94-1.53 5.94-3.82 0-3.13-2.7-3.5-6.42-3.92-5.47-.7-9.97-1.7-9.97-6.95 0-4.56 4.19-7.64 9.7-7.59 5.68.06 9.76 2.76 10.14 7.96h-4.04c-.31-2.55-2.7-4.5-6.1-4.5-3.4 0-5.73 1.53-5.73 3.81 0 2.76 2.6 3.02 6.16 3.45 5.62.69 10.18 1.86 10.18 7.43 0 4.66-4.45 7.58-9.97 7.58-6.42 0-10.82-3.08-10.93-8.6h4.14zm22.49-13.16h-4.5v-3.7h4.5v-7h4.03v7.05h6.37v3.72h-6.37v14.8c0 2.12.75 2.91 2.76 2.91h4.4v3.72h-4.61c-4.83 0-6.52-2.13-6.52-6.53V13.9h-.06zm12.05 8.86c0-7.64 5.14-12.84 12.46-12.84 7.32 0 12.47 5.2 12.47 12.84s-5.15 12.84-12.47 12.84c-7.37 0-12.47-5.2-12.47-12.84zm20.74 0c0-5.36-3.35-9.28-8.33-9.28-4.99 0-8.33 3.87-8.33 9.28 0 5.41 3.34 9.28 8.33 9.28 4.98 0 8.33-3.92 8.33-9.28zm20.16-12.57v3.92h-2.02c-5.25 0-6.69 4.4-6.69 8.39v12.83h-4.03V10.2h3.5l.53 3.77c1.17-1.91 3.08-3.77 7.59-3.77h1.11zm12.56-.27c6.9 0 11.73 4.46 11.94 11.94 0 .53-.05 1.11-.1 1.7h-19.53v.32c.16 4.88 3.24 8.11 7.9 8.11 3.56 0 6.32-1.86 7.17-5.14h4.08c-1 5.04-5.14 8.7-10.93 8.7-7.53 0-12.46-5.15-12.46-12.84 0-7.7 4.83-12.79 11.94-12.79zm7.7 10.3c-.38-4.35-3.5-6.74-7.7-6.74a7.4 7.4 0 00-7.47 6.73h15.17z"/></svg><svg viewBox="0 0 60 60" id="propstore-monogram" xmlns="http://www.w3.org/2000/svg"><g clip-path="url(#cdclip0)"><path d="M42.3 34.29H0a8.6 8.6 0 018.62-8.58H42.5c4.38 0 8.3-3.11 8.87-7.48a8.62 8.62 0 00-8.56-9.71H8.62A8.53 8.53 0 010 0h42.77C52.53 0 60.47 8.16 60 18.03c-.47 9.2-8.46 16.26-17.7 16.26zM30.86 60H8.62A8.56 8.56 0 010 51.48h22.25c4.75 0 8.61 3.8 8.61 8.52z"/></g><defs><clipPath id="cdclip0"><path d="M0 0h60v60H0z"/></clipPath></defs></svg><svg viewBox="0 0 16 16" id="reserved" xmlns="http://www.w3.org/2000/svg"><path d="M8 1a7 7 0 100 14A7 7 0 008 1zm3.67 11.5L3.49 4.34c.25-.3.53-.59.84-.84l8.18 8.18c-.25.3-.53.59-.84.84z"/></svg><svg viewBox="0 0 20 20" id="search" xmlns="http://www.w3.org/2000/svg"><path fill-rule="evenodd" clip-rule="evenodd" d="M8.75 2.67a6.08 6.08 0 100 12.16 6.08 6.08 0 000-12.16zm6.38 11.04a8.08 8.08 0 10-1.41 1.42l3.07 3.08a1 1 0 001.42-1.42l-3.08-3.08z"/></svg><svg viewBox="0 0 24 24" id="share-pinterest" xmlns="http://www.w3.org/2000/svg"><path d="M11.99 2a9.99 9.99 0 00-3.64 19.3 9.6 9.6 0 01.03-2.87l1.18-4.97s-.3-.6-.3-1.48c0-1.39.8-2.43 1.8-2.43.86 0 1.27.64 1.27 1.41 0 .86-.55 2.14-.83 3.33-.23 1 .5 1.8 1.48 1.8 1.78 0 3.14-1.87 3.14-4.57 0-2.4-1.72-4.07-4.17-4.07a4.32 4.32 0 00-4.51 4.34c0 .86.33 1.78.74 2.28a.3.3 0 01.07.28l-.28 1.14c-.04.18-.14.22-.33.13-1.25-.58-2.03-2.4-2.03-3.87 0-3.15 2.29-6.04 6.6-6.04 3.47 0 6.16 2.46 6.16 5.76 0 3.45-2.17 6.22-5.18 6.22-1.02 0-1.97-.53-2.3-1.15l-.62 2.38c-.22.86-.83 1.95-1.24 2.62A10 10 0 1012 2z"/></svg><svg viewBox="0 0 16 16" id="star" xmlns="http://www.w3.org/2000/svg"><path d="M14.19 5.52l-3.97-.58-1.77-3.6a.5.5 0 00-.9 0l-1.77 3.6-3.97.58a.5.5 0 00-.28.85l2.87 2.8-.67 3.95a.5.5 0 00.72.53L8 11.78l3.55 1.87c.1.05.2.07.32.05a.5.5 0 00.4-.58l-.67-3.95 2.87-2.8a.5.5 0 00-.28-.85z"/></svg><svg viewBox="0 0 16 16" id="target-blank" xmlns="http://www.w3.org/2000/svg"><path fill-rule="evenodd" clip-rule="evenodd" d="M10 2.75a.75.75 0 010-1.5h4c.41 0 .75.34.75.75v4a.75.75 0 01-1.5 0V3.81L7.2 9.86A.75.75 0 116.14 8.8l6.05-6.05H10zm-6.67 2a.58.58 0 00-.58.58v7.34a.58.58 0 00.58.58h7.34a.58.58 0 00.58-.58v-4a.75.75 0 011.5 0v4a2.08 2.08 0 01-2.08 2.08H3.33a2.08 2.08 0 01-2.08-2.08V5.33a2.08 2.08 0 012.08-2.08h4a.75.75 0 110 1.5h-4z"/></svg><svg viewBox="0 0 32 32" id="ticket" xmlns="http://www.w3.org/2000/svg"><path d="M28.81 6.45a3.2 3.2 0 00-3.18-3.2l-7.82-.04a3.2 3.2 0 00-2.28.93L4.83 14.8a3.2 3.2 0 000 4.53l7.92 7.92a3.2 3.2 0 004.53 0l10.6-10.61a3.2 3.2 0 00.94-2.27l-.01-7.92zM22.4 11.2a1.6 1.6 0 110-3.2 1.6 1.6 0 010 3.2z"/></svg><svg viewBox="0 0 24 24" id="trash" xmlns="http://www.w3.org/2000/svg"><path d="M20.25 5.25H16.5V4.5a2.25 2.25 0 00-2.25-2.25h-4.5A2.25 2.25 0 007.5 4.5v.75H3.75a.75.75 0 000 1.5h.75v13.5a1.5 1.5 0 001.5 1.5h12a1.5 1.5 0 001.5-1.5V6.75h.75a.75.75 0 100-1.5zM10.5 16.5a.75.75 0 11-1.5 0v-6a.75.75 0 111.5 0v6zm4.5 0a.75.75 0 11-1.5 0v-6a.75.75 0 111.5 0v6zm0-11.25H9V4.5a.75.75 0 01.75-.75h4.5a.75.75 0 01.75.75v.75z"/></svg></defs></svg>