<svg xmlns="http://www.w3.org/2000/svg" viewBox="0 0 122 122"><path d="M71.61 64.93H42.54c0-3.23 2.67-5.9 5.9-5.9h23.31c2.95 0 5.76-2.1 6.04-5.19a5.99 5.99 0 00-5.9-6.73H48.44a5.93 5.93 0 01-5.9-5.9h29.35c6.75 0 12.22 5.61 11.8 12.5-.28 6.3-5.76 11.22-12.08 11.22zM63.75 82.61H48.44a5.93 5.93 0 01-5.9-5.9h15.3c3.24 0 5.9 2.68 5.9 5.9zM12.9 44.02c-2.81-1.27-3.23-3.8-2.39-5.9.84-2.1 2.67-2.94 4.5-2.38l-.7 1.68a2.09 2.09 0 00-2.25 1.26c-.57 1.4-.14 2.81 1.54 3.65 1.83.7 3.23.14 3.8-1.26.56-.98.13-2.25-.57-2.67-.14-.14-.42 0-.42.14l-.7 1.55-1.27-.56.99-2.25c.28-.7 1.12-.98 1.82-.7l3.1 1.4-.7 1.55-1.27-.56c.7.56.84 1.68.42 2.8-.84 2.1-3.1 3.37-5.9 2.25zM20.48 31.67l-4.35-3.51 1.12-1.4 4.36 3.5c.84.7 1.82.56 2.39-.28.7-.84.7-1.68-.28-2.38l-4.36-3.51 1.12-1.4 4.36 3.5c1.68 1.4 1.68 3.23.42 4.92-1.26 1.54-2.95 1.96-4.78.56zM33.97 20.3l-2.53 1.96.56 1.97-1.54 1.12-2.53-9.12 1.4-1.12 8.01 5.05-1.54 1.12-1.83-.98zm-1.4-.98l-2.53-1.69.84 2.95 1.68-1.26zM47.73 15.67l-1.82.7-.98-1.97c-.29-.56-.85-.84-1.4-.56l-1.55.56 1.12 2.95-1.83.7-3.23-8.28 3.51-1.4c1.69-.7 3.23 0 3.8 1.54.28.84.14 1.55-.42 2.1.84.29 1.4.7 1.68 1.41l1.12 2.25zM41.41 13l1.55-.56c.84-.28.98-.98.7-1.55-.14-.7-.7-1.12-1.54-.84l-1.55.56.84 2.39zM57.99 11.88l-3.23.42-.42 1.96-1.97.14 2.39-9.12 1.82-.14 4.36 8.42-1.97.28-.98-1.96zm-.84-1.55l-1.27-2.8-.7 3.08 1.97-.28zM66.84 5l1.96.28 2.53 6.32.99-5.76 1.82.28-1.4 8.7-1.97-.28-2.53-6.31-.98 5.75-1.83-.28 1.4-8.7zM82.71 10.75l-2.39-1.12.7-1.54 6.47 2.95-.7 1.54-2.4-1.12-2.94 6.6-1.69-.85 2.95-6.46zM93.24 14.68l4.78 3.65-.98 1.27-3.23-2.53-1.13 1.54 2.53 1.97-.98 1.26-2.53-1.96-1.26 1.68 3.37 2.67-1.13 1.26-4.91-3.79 5.47-7.02zM103.22 23.67l3.79 4.77-1.26.98-2.53-3.37-1.4 1.13 2.1 2.52-1.4 1.12-2.11-2.52-1.55 1.26 2.67 3.37-1.26.98-3.8-4.77 6.75-5.47zM110.94 34.75l1.27 2.67c.98 2.25.56 4.77-2.25 6.04-2.8 1.26-4.92-.14-5.9-2.39l-1.26-2.67 8.14-3.65zm-5.47 5.48c.56 1.26 1.82 2.38 3.65 1.54 1.82-.84 1.96-2.38 1.4-3.79l-.42-.84-5.06 2.25.42.84zM17.82 93.28l-1.83-2.67-1.97.57-1.12-1.55 9.13-2.38.98 1.4-5.33 7.86-1.13-1.55 1.27-1.68zm.98-1.4l1.68-2.53-2.95.84 1.27 1.69zM24 98.47l3.65-4.2 1.4 1.12-3.65 4.2c-.7.85-.56 1.83.14 2.4.84.7 1.69.7 2.39-.15l3.65-4.2 1.4 1.11-3.65 4.22c-1.4 1.68-3.23 1.54-4.91.28-1.55-1.27-1.97-3.1-.42-4.78zM38.18 103.95l-2.38-1.13.7-1.4 6.32 3.23-.7 1.4-2.4-1.12-3.22 6.46-1.69-.85 3.37-6.6zM54.34 107.74l-1.97 8.56-1.83-.42.85-3.65-3.52-.84-.84 3.64-1.82-.42 1.96-8.56 1.83.42-.84 3.37 3.5.84.85-3.36 1.83.42zM59.67 108.16l6.04-.14v1.68l-4.07.14v1.83h3.23v1.68h-3.23v2.1l4.21-.13V117l-6.18.14v-8.98zM70.77 107.46l1.97-.56 4.91 4.63-1.54-5.62 1.82-.56 2.4 8.56-1.97.56-4.92-4.63 1.54 5.62-1.96.42-2.25-8.42zM85.24 103.8l-2.25 1.27-.84-1.4 6.18-3.51.84 1.4-2.25 1.27 3.52 6.31-1.69.98-3.51-6.31zM91.98 97.35l1.4-1.26 5.76 6.73-1.4 1.27-5.76-6.74zM100.55 95.39c-2.39-1.83-2.39-4.35-.84-6.32 1.4-1.82 3.37-2.25 5.05-1.26l-1.26 1.54c-.84-.42-1.83-.14-2.53.7-.84 1.13-.7 2.67.7 3.8 1.4 1.11 2.95.83 3.8-.29.7-.84.7-1.96.14-2.67l1.12-1.54c1.4 1.26 1.4 3.37 0 5.2-1.27 1.96-3.8 2.66-6.18.84zM10.23 69.28a3.23 3.23 0 100-6.46 3.23 3.23 0 000 6.46zM112.77 69.28a3.23 3.23 0 100-6.46 3.23 3.23 0 000 6.46z" fill="#2D2E41"/></svg>