<svg xmlns="http://www.w3.org/2000/svg" viewBox="0 0 32 32"><path fill-rule="evenodd" clip-rule="evenodd" d="M1.25 3c0-.41.34-.75.75-.75h2.27a1.75 1.75 0 0 1 1.7 1.44l3.38 18.56H23a.75.75 0 0 1 0 1.5H8.72a.75.75 0 0 1-.73-.62L4.49 3.96a.25.25 0 0 0-.23-.21H2A.75.75 0 0 1 1.25 3Z" /><path fill-rule="evenodd" clip-rule="evenodd" d="M10 23.75a1.75 1.75 0 1 0 0 3.5 1.75 1.75 0 0 0 0-3.5ZM6.75 25.5a3.25 3.25 0 1 1 6.5 0 3.25 3.25 0 0 1-6.5 0ZM23 23.75a1.75 1.75 0 1 0 0 3.5 1.75 1.75 0 0 0 0-3.5Zm-3.25 1.75a3.25 3.25 0 1 1 6.5 0 3.25 3.25 0 0 1-6.5 0Z"/><path d="M5.25 8c0-.41.34-.75.75-.75h21a.75.75 0 0 1 .74.88L26.2 16.5a2.74 2.74 0 0 1-2.7 2.26H7.81a.75.75 0 0 1 0-1.5h15.7a1.24 1.24 0 0 0 1.23-1.02l1.36-7.48H6A.75.75 0 0 1 5.25 8Z"/></svg>