<svg xmlns="http://www.w3.org/2000/svg" viewBox="0 0 22 27"><path fill-rule="evenodd" clip-rule="evenodd" d="M2.08 8.95c-.2 0-.33.15-.33.3v15.7c0 .15.13.3.33.3h17.84c.2 0 .33-.15.33-.3V9.25c0-.15-.13-.3-.33-.3H2.08zm-1.83.3c0-1 .83-1.8 1.83-1.8h17.84c1 0 1.83.8 1.83 1.8v15.7c0 1-.83 1.8-1.83 1.8H2.08c-1 0-1.83-.8-1.83-1.8V9.25z"/><path fill-rule="evenodd" clip-rule="evenodd" d="M4.86 6.37a6.13 6.13 0 0112.28 0v4.29a.75.75 0 11-1.5 0v-4.3A4.63 4.63 0 0011 1.76a4.63 4.63 0 00-4.64 4.62v4.29a.75.75 0 01-1.5 0v-4.3z" /></svg>