<svg xmlns="http://www.w3.org/2000/svg" viewBox="0 0 122 122"><path fill-rule="evenodd" clip-rule="evenodd" d="M41.94 17a2.06 2.06 0 0 0-2.06 2.06v9.69H64.8c.47 0 .91.18 1.24.51l19.06 19.07c.33.32.52.77.52 1.23v40.19h9.68a2.06 2.06 0 0 0 2.06-2.06V35.04L79.34 17h-37.4Zm43.69 76.25h9.68a5.56 5.56 0 0 0 5.56-5.56V34.3c0-.46-.18-.9-.5-1.23L81.3 14a1.75 1.75 0 0 0-1.24-.51H41.94a5.56 5.56 0 0 0-5.56 5.56v9.69h-9.7a5.56 5.56 0 0 0-5.55 5.56v68.63a5.56 5.56 0 0 0 5.56 5.56h53.37a5.56 5.56 0 0 0 5.56-5.56v-9.69Zm-3.5-42.96L64.09 32.25h-37.4a2.06 2.06 0 0 0-2.07 2.06v68.63A2.06 2.06 0 0 0 26.7 105h53.37a2.06 2.06 0 0 0 2.06-2.06V50.29ZM40.19 72.44c0-.97.78-1.75 1.75-1.75H64.8a1.75 1.75 0 1 1 0 3.5H41.94c-.97 0-1.75-.79-1.75-1.75Zm0 15.25c0-.97.78-1.75 1.75-1.75H64.8a1.75 1.75 0 1 1 0 3.5H41.94c-.97 0-1.75-.79-1.75-1.75Z" /></svg>