<svg xmlns="http://www.w3.org/2000/svg" viewBox="0 0 122 122"><path fill-rule="evenodd" clip-rule="evenodd" d="M4.88 11.44c0-.97.78-1.75 1.75-1.75H15.26a5.56 5.56 0 0 1 5.42 4.58l2.63 14.48h78.62a1.75 1.75 0 0 1 1.72 2.06L97.85 62.7a9.33 9.33 0 0 1-9.21 7.69H30.89l2.83 15.56H86.7a11.28 11.28 0 1 1-8.17 3.5H45.29a11.28 11.28 0 1 1-14.74-1.39 2 2 0 0 1 0-.05L27.1 69.14a1.74 1.74 0 0 1-.07-.4l-9.8-53.85a2.06 2.06 0 0 0-2-1.7H6.62c-.96 0-1.75-.79-1.75-1.75Zm25.38 55.44h58.38a5.83 5.83 0 0 0 5.76-4.8v-.01l5.44-29.82H23.96l6.3 34.63Zm6.86 22.56a7.78 7.78 0 1 0 0 15.56 7.78 7.78 0 0 0 0-15.56Zm49.57 0a7.78 7.78 0 1 0 0 15.56 7.78 7.78 0 0 0 0-15.56Z" /></svg>