<svg xmlns="http://www.w3.org/2000/svg" viewBox="0 0 122 122"><path fill-rule="evenodd" clip-rule="evenodd" d="M87.88 22.43a11.2 11.2 0 00-8.26 3.42 11.2 11.2 0 00-3.43 8.27A11.58 11.58 0 0087.9 45.8a11.2 11.2 0 008.26-3.43 11.2 11.2 0 003.42-8.26 11.58 11.58 0 00-11.69-11.7zm-5.94 5.66a8.36 8.36 0 016-2.44c2.3 0 4.33.83 5.96 2.45a8.24 8.24 0 012.45 6.02c0 2.34-.82 4.38-2.45 6.01a8.18 8.18 0 01-5.97 2.46 8.36 8.36 0 01-6-2.44 8.16 8.16 0 01-2.52-6.03c0-2.35.85-4.4 2.53-6.03z" /><path fill-rule="evenodd" clip-rule="evenodd" d="M70.35 8.99c-3.75 0-5.8.73-6.75 1.69L10.47 63.81c-1 1-1.48 2.17-1.48 3.6 0 .67.13 1.3.38 1.87.26.6.62 1.14 1.1 1.61l40.64 40.64.01.01.02.02a4.5 4.5 0 003.45 1.45c1.43 0 2.6-.48 3.6-1.48l53.13-53.13c.95-.95 1.7-3.05 1.7-6.96V15.43c0-1.77-.62-3.25-1.91-4.54a6.13 6.13 0 00-4.54-1.9H70.35zm-2.08 3.3c.32-.06.65-.08.97-.08h37.33a3.18 3.18 0 013.22 3.22v35.6c0 1.13-.02 2.07-.08 2.79-.03.35-.07.69-.13.98-.04.24-.13.64-.35 1.01l-.11.18-54.53 54.53L11.5 67.4l54.36-54.37a2.4 2.4 0 011.13-.62c.33-.08.66-.1.95-.1.11 0 .23-.02.34-.04z"/></svg>