<svg xmlns="http://www.w3.org/2000/svg" viewBox="0 0 122 122">
    <path d="M51.86 53.46l17.09 16.97c.67.67.6 1.66-.05 2.17l-.06.05-.05.06c-.5.58-1.53.63-2.2-.04L49.6 55.68l-.02-.02c-.53-.46-.57-1.5.08-2.24.5-.57 1.53-.63 2.2.04zM60.28 79.1c.61.6.6 1.44-.03 2.16-.5.57-1.53.63-2.2-.04l-17-17-.01-.01c-.54-.47-.58-1.5.07-2.24.5-.58 1.53-.64 2.2.04L60.28 79.1zM67.8 41.88l-3.64-3.63 2.27-2.27 3.64 3.63-2.28 2.27zM78.26 47.78l-2.28 2.28-3.63-3.64 2.27-2.27 3.64 3.63zM84.17 58.23l-3.63-3.64 2.27-2.27 3.64 3.63-2.28 2.28z" />
    <path fill-rule="evenodd" clip-rule="evenodd" d="M111.2 51.73L51.86 111.3a7.49 7.49 0 01-10.79 0l-5.65-5.66a3.77 3.77 0 01-.61-4.79c2.6-4.3 1.82-9.76-1.68-13.26a10.68 10.68 0 00-13.26-1.69c-1.5.9-3.5.7-4.8-.6l-3.97-3.97a7.49 7.49 0 010-10.79L70.56 11.1a7.49 7.49 0 0110.79 0l5.05 5.06c1.2 1.2 1.51 3 .8 4.63a10.7 10.7 0 002.1 12.34 10.72 10.72 0 0012.33 2.08 4.14 4.14 0 014.63.8l4.94 4.94a7.49 7.49 0 010 10.79zM94.43 64.02l14.53-14.53a4.33 4.33 0 00-.13-6.32l-5.33-5.33-.51.25a14.07 14.07 0 01-16.06-2.73A14.07 14.07 0 0184.2 19.3l.25-.5-5.46-5.47a4.29 4.29 0 00-6.19 0L58.4 27.98 62 31.6l-2.23 2.24-3.61-3.61-42.7 42.7a4.29 4.29 0 000 6.18l4.42 4.42.54-.34a13.63 13.63 0 0117.06 2.05 14.15 14.15 0 012.17 17.2l-.31.54 5.97 5.98a4.3 4.3 0 006.19 0l42.7-42.7-3.62-3.6 2.24-2.24 3.61 3.6z" />
</svg>
