<svg xmlns="http://www.w3.org/2000/svg" viewBox="0 0 122 122"><path fill-rule="evenodd" clip-rule="evenodd" d="M60 106H16a9 9 0 0 0-9 9v1a1 1 0 0 0 1 1h60a1 1 0 0 0 1-1v-1a9 9 0 0 0-9-9Zm-44-3a12 12 0 0 0-12 12v1a4 4 0 0 0 4 4h60a4 4 0 0 0 4-4v-1a12 12 0 0 0-12-12H16ZM56.67 17.31l-29.7 29.7-2.12-2.12a4 4 0 0 0-5.66 0l-6.36 6.36a4 4 0 0 0 0 5.66l31.82 31.82a4 4 0 0 0 5.65 0l6.37-6.36a4 4 0 0 0 0-5.66l-2.12-2.12 8.48-8.49 36.5 36.5a8.5 8.5 0 1 0 12.02-12.02l-36.5-36.5 9.2-9.19 2.12 2.12a4 4 0 0 0 5.65 0l6.37-6.36a4 4 0 0 0 0-5.66L66.57 3.17a4 4 0 0 0-5.66 0l-6.36 6.37a4 4 0 0 0 0 5.65l2.12 2.12ZM64.45 5.3l31.82 31.82a1 1 0 0 1 0 1.42l-6.37 6.36a1 1 0 0 1-1.41 0L56.67 13.07a1 1 0 0 1 0-1.41l6.36-6.37a1 1 0 0 1 1.42 0Zm-5.66 14.15-29.7 29.7 23.34 23.33 8.48-8.49 12.02-12.02 9.2-9.19-23.34-23.33Zm6.36 44.54 7.78-7.77 36.5 36.49a5.5 5.5 0 1 1-7.79 7.78l-36.49-36.5ZM22.73 47.01a1 1 0 0 0-1.42 0l-6.36 6.37a1 1 0 0 0 0 1.41l31.82 31.82a1 1 0 0 0 1.41 0l6.37-6.36a1 1 0 0 0 0-1.42L22.73 47.01Z" /></svg>