<svg xmlns="http://www.w3.org/2000/svg" viewBox="0 0 122 122"><path d="M51.56 43.94h22.69v3.62H51.56v-3.62z" /><path fill-rule="evenodd" clip-rule="evenodd" d="M100.86 49.64l.07 1.92h9.63a1.81 1.81 0 011.81 1.81v19.07a1.81 1.81 0 01-1.8 1.81h-9.97l-.32 1.62a17.42 17.42 0 01-9.64 12.44l-1.14.54v14.09a1.81 1.81 0 01-1.81 1.81H72.44a1.81 1.81 0 01-1.81-1.81V93.3H55.19v9.63a1.81 1.81 0 01-1.81 1.81H38.12a1.81 1.81 0 01-1.8-1.81V88.76l-.88-.6A32.97 32.97 0 0121.32 64.6l-.2-1.78h-2.06a9.45 9.45 0 01-9.43-9.44v-5.62h3.62v5.63a5.81 5.81 0 005.81 5.8h2l.19-1.79c1.73-16.93 15.75-28.7 35.94-28.7h18.46L90.4 17.6a1.81 1.81 0 012.9 1.45v15.6l.69.6a20.04 20.04 0 016.86 14.38zm7.89 20.98V55.2H97.32a129.36 129.36 0 01-.01-3.42c-.02-1.72-.11-3.47-.52-5.25-.8-3.48-2.77-6.7-7.1-10.22V22.7L76.85 32.3H57.2c-7.92 0-16 2.15-22.16 6.84C28.81 43.9 24.7 51.15 24.7 61a28.74 28.74 0 0015.25 25.56v14.58h11.62V89.69h22.69v11.44h11.63V86.45c3.77-1.46 6.53-3.06 8.42-5.69 1.83-2.53 2.68-5.8 3.26-10.14h11.19z"/></svg>