<svg xmlns="http://www.w3.org/2000/svg" viewBox="0 0 122 122"><path fill-rule="evenodd" clip-rule="evenodd" d="M70.36 93.43l-1.3-.69L51.7 110.1h-3.74L9.63 71.74V68l49.94-49.94 1.96-.81h38.3l2.64 2.64v17.47l.89.6a32.35 32.35 0 0114.36 26.81 29.94 29.94 0 01-.36 3.53l-.01.06v.05a32.17 32.17 0 01-47 25.02zm25.8-59.07l2.68.95V20.87H61.88l-49 49 36.96 36.96 17.05-17.06.14-.27c.18-.34.46-.62.8-.8l.27-.14 30.74-30.73v-18.4l-1.15-.53a28.69 28.69 0 00-12.29-2.77 1.81 1.81 0 010-3.63c3.67 0 7.31.63 10.77 1.86zm9.73 10.38l-3.43-3.5v16.95l-.8 1.96-30.03 30.03 2.75 1.15a28.6 28.6 0 0039.3-22.4c.23-1.34.37-2.7.4-4.06v-.06a28.7 28.7 0 00-8.19-20.07z" /></svg>