<svg xmlns="http://www.w3.org/2000/svg" viewBox="0 0 80 80"><path d="M46.96 42.58H27.89a3.89 3.89 0 013.87-3.87h15.3c1.93 0 3.77-1.38 3.95-3.4a3.93 3.93 0 00-3.87-4.42H31.76a3.89 3.89 0 01-3.87-3.87h19.25a7.72 7.72 0 017.74 8.2c-.18 4.14-3.78 7.36-7.92 7.36zM41.8 54.17H31.76a3.89 3.89 0 01-3.87-3.86h10.04a3.89 3.89 0 013.87 3.86zM8.46 28.86c-1.84-.82-2.12-2.48-1.57-3.86.56-1.38 1.75-1.93 2.95-1.57l-.46 1.1c-.55-.08-1.2.2-1.47.84-.37.92-.1 1.84 1 2.39 1.2.46 2.13.1 2.5-.83.36-.64.09-1.47-.37-1.75-.1-.09-.28 0-.28.1l-.46 1-.83-.36.65-1.47c.18-.46.73-.65 1.2-.46l2.02.92-.46 1-.83-.36c.46.37.55 1.1.28 1.84-.56 1.38-2.03 2.21-3.87 1.47zM13.43 20.77l-2.85-2.3.73-.93 2.86 2.3c.55.46 1.2.37 1.56-.18.47-.55.47-1.1-.18-1.56l-2.86-2.3.74-.93 2.86 2.3c1.1.93 1.1 2.12.27 3.23-.83 1-1.93 1.29-3.13.37zM22.27 13.31l-1.65 1.29.36 1.29-1 .73-1.67-5.98.92-.73 5.25 3.3-1 .74-1.2-.64zm-.92-.64l-1.65-1.1.55 1.92 1.1-.82zM31.3 10.27l-1.2.46-.64-1.29c-.19-.36-.55-.55-.92-.36l-1.02.36.74 1.94-1.2.46-2.11-5.43 2.3-.92c1.1-.46 2.12 0 2.48 1.01.19.55.1 1.01-.27 1.38.55.18.92.46 1.1.92l.74 1.47zm-4.14-1.75l1-.36c.56-.19.65-.65.47-1.02-.1-.46-.46-.73-1.01-.55l-1.02.37.56 1.56zM38.02 7.79l-2.11.27-.28 1.3-1.29.08 1.57-5.98 1.2-.09 2.85 5.52-1.29.19-.65-1.3zm-.55-1.01l-.83-1.84-.46 2.02 1.3-.18zM43.83 3.28l1.29.18 1.65 4.14.65-3.77 1.2.18-.92 5.71-1.3-.18-1.65-4.14-.65 3.77-1.2-.19.93-5.7zM54.24 7.05l-1.57-.73.46-1.02 4.24 1.94-.46 1-1.57-.73-1.93 4.33-1.1-.55 1.93-4.24zM61.14 9.63l3.14 2.4-.65.82-2.12-1.66-.73 1.02 1.65 1.28-.64.83-1.66-1.29-.83 1.1 2.21 1.76-.73.83-3.23-2.49 3.6-4.6zM67.68 15.52l2.49 3.13-.83.64-1.66-2.2-.92.73 1.38 1.66-.92.73-1.38-1.65-1.01.82 1.75 2.21-.83.65-2.49-3.13 4.42-3.6zM72.75 22.79l.83 1.75c.64 1.47.37 3.13-1.48 3.96-1.84.82-3.22-.1-3.86-1.57l-.83-1.75 5.34-2.39zm-3.6 3.59c.38.83 1.2 1.56 2.4 1.01s1.3-1.56.92-2.48l-.27-.56-3.32 1.48.28.55zM11.68 61.17l-1.2-1.75-1.28.37-.74-1.02 5.99-1.56.64.92-3.5 5.15-.74-1 .83-1.11zm.65-.92l1.1-1.66-1.93.55.83 1.1zM15.73 64.57l2.4-2.76.92.74-2.4 2.76c-.45.55-.36 1.2.1 1.56.55.46 1.1.46 1.56-.09l2.4-2.76.92.74-2.4 2.76c-.92 1.1-2.11 1.01-3.22.18-1.01-.83-1.29-2.02-.28-3.13zM25.04 68.16l-1.57-.73.46-.92 4.15 2.11-.46.92-1.57-.73-2.12 4.23-1.1-.55 2.2-4.33zM35.63 70.65l-1.29 5.61-1.2-.28.56-2.39-2.3-.55-.56 2.4-1.2-.28 1.3-5.62 1.19.28-.55 2.2 2.3.56.55-2.2 1.2.27zM39.13 70.92l3.96-.09v1.1l-2.67.1v1.2h2.12v1.1h-2.12v1.38l2.76-.1v1.11l-4.05.1v-5.9zM46.4 70.46l1.3-.37 3.22 3.04-1.01-3.68 1.2-.37 1.56 5.62-1.29.36-3.22-3.03 1.01 3.68-1.29.28-1.47-5.53zM55.9 68.07l-1.48.83-.55-.92 4.05-2.3.55.92-1.47.83 2.3 4.14-1.1.64-2.3-4.14zM60.31 63.84l.93-.83L65 67.43l-.92.82-3.78-4.41zM65.93 62.55c-1.56-1.2-1.56-2.85-.55-4.14.92-1.2 2.21-1.48 3.32-.83l-.83 1.01c-.56-.28-1.2-.1-1.66.46-.55.74-.46 1.75.46 2.49.92.73 1.93.55 2.49-.19.46-.55.46-1.29.09-1.75l.74-1c.92.82.92 2.2 0 3.4-.83 1.28-2.5 1.74-4.06.55zM6.7 45.43a2.12 2.12 0 10.01-4.24 2.12 2.12 0 000 4.24zM73.95 45.43a2.12 2.12 0 100-4.24 2.12 2.12 0 000 4.24z"/></svg>