<svg xmlns="http://www.w3.org/2000/svg" viewBox="0 0 122 122"><path fill-rule="evenodd" clip-rule="evenodd" d="M81.5 62.83a26.78 26.78 0 01-5.6 5.08 48.9 48.9 0 001.78-1.4 28.96 28.96 0 003.82-3.68zm-34.6 6.92l3.36-1.44-3.03-2.05a24.78 24.78 0 01-10.92-20.51c0-13.6 11.1-24.69 24.69-24.69 13.6 0 24.69 11.1 24.69 24.69 0 4.05-1 8.03-2.9 11.6-1.9 3.55-4.1 6-8.1 8.95l-2.78 2.07 3.2 1.38a36.28 36.28 0 0121.96 31.19h-3.63A32.44 32.44 0 0061 70.44a32.44 32.44 0 00-32.44 30.5h-3.63c.78-14 9.65-25.9 21.97-31.19zm35.16-24A21 21 0 0061 24.69a21 21 0 00-21.06 21.06A21 21 0 0061 66.81a21 21 0 0021.06-21.06z" /></svg>