<svg xmlns="http://www.w3.org/2000/svg" viewBox="0 0 122 122"><path fill-rule="evenodd" clip-rule="evenodd" d="M31 9.5c.83 0 1.5.67 1.5 1.5v45a1.5 1.5 0 11-3 0V11c0-.83.67-1.5 1.5-1.5zm30 0c.83 0 1.5.67 1.5 1.5v22.5a1.5 1.5 0 11-3 0V11c0-.83.67-1.5 1.5-1.5zm30 0c.83 0 1.5.67 1.5 1.5v45a1.5 1.5 0 11-3 0V11c0-.83.67-1.5 1.5-1.5zM60.5 41.5c.57 0 1.09.32 1.34.83l10.83 21.65 21.58 3.6a1.5 1.5 0 01.81 2.54L80.7 84.47l3.62 25.32a1.5 1.5 0 01-2.16 1.55L60.5 100.51l-21.66 10.83a1.5 1.5 0 01-2.16-1.55l3.62-25.32-14.36-14.35a1.5 1.5 0 01.81-2.54l21.58-3.6 10.83-21.65c.25-.5.77-.83 1.34-.83zm0 4.85L50.67 66a1.5 1.5 0 01-1.09.81l-19.46 3.25 12.83 12.82c.33.34.5.8.42 1.28l-3.31 23.22 19.77-9.89a1.5 1.5 0 011.34 0l19.77 9.89-3.31-23.22a1.5 1.5 0 01.42-1.28l12.83-12.82-19.46-3.25a1.5 1.5 0 01-1.1-.8L60.5 46.34z"/></svg>