<svg fill="none" xmlns="http://www.w3.org/2000/svg" viewBox="0 0 122 122"><path fill-rule="evenodd" clip-rule="evenodd" d="M12 33c0-5.2467 4.2533-9.5 9.5-9.5h79c5.247 0 9.5 4.2533 9.5 9.5v60c0 5.2467-4.253 9.5-9.5 9.5H52.6213L34 121.121V102.5H21.5c-5.2467 0-9.5-4.2533-9.5-9.5V33Zm9.5-6.5c-3.5899 0-6.5 2.9102-6.5 6.5v60c0 3.5898 2.9101 6.5 6.5 6.5H37v14.379L51.3787 99.5H100.5c3.59 0 6.5-2.9102 6.5-6.5V33c0-3.5898-2.91-6.5-6.5-6.5h-79Z" fill="#2D2E41"/><path d="M64 61c0 1.6569-1.3431 3-3 3s-3-1.3431-3-3 1.3431-3 3-3 3 1.3431 3 3Zm-12 0c0 1.6569-1.3431 3-3 3s-3-1.3431-3-3 1.3431-3 3-3 3 1.3431 3 3Zm24 0c0 1.6569-1.3431 3-3 3s-3-1.3431-3-3 1.3431-3 3-3 3 1.3431 3 3Z" fill="#2D2E41"/></svg>