<svg xmlns="http://www.w3.org/2000/svg" viewBox="0 0 122 122"><path fill-rule="evenodd" clip-rule="evenodd" d="M60.62 105.05l.03-1.2h.4l1.1.04 3.98.1c3.32.1 7.8.21 12.44.33 8.07.21 16.62.42 20.46.47l-2.9-17.7-.08-.49.28-.4a45.38 45.38 0 008.47-26.06c0-24.17-19.73-43.94-44.18-43.94S16.2 35.98 16.2 60.14c0 24.16 19.96 43.7 44.42 43.7h.03l-.03 1.2zm40.55-44.9c0 9.68-3.14 17.7-9.1 25.4l2.32 14.04.24 1.43-1.45-.03-32.59-.72c-22.55-.49-40.76-17.44-40.76-40.13 0-22.4 18.17-40.37 40.8-40.37a40.4 40.4 0 0140.54 40.37zm-35.03 2.73h-.02a6.43 6.43 0 00-3.8 5.62H58.7a9.82 9.82 0 015.82-8.94h.01l.01-.01a9.49 9.49 0 005.26-8.72c0-5.12-3.84-9.56-9.17-9.56-4.46 0-8 3.05-9.1 6.99l-3.46-1.28a13 13 0 0112.56-9.28c7.28 0 13.04 6.12 13.04 13.13 0 5.05-2.89 9.87-7.52 12.05zm-5.52 11.36a2.6 2.6 0 012.66 2.62 2.6 2.6 0 01-2.66 2.62c-1.62 0-2.9-1.24-2.9-2.62 0-1.38 1.28-2.62 2.9-2.62z"/></svg>