<svg xmlns="http://www.w3.org/2000/svg" viewBox="0 0 122 122"><path fill-rule="evenodd" clip-rule="evenodd" d="M58.13 29.35A30.12 30.12 0 0038.63 22c-10.68 0-19.09 6.17-23.07 16.93-9.07 24.51 23.85 46 37.9 55.16 1.88 1.22 3.96 2.58 4.9 3.3.2.16.35.28.44.37l1.97 2.24 2.19-2.02c.1-.09.32-.25.62-.45.71-.49 1.89-1.24 3.04-1.97 13.49-8.6 49.29-31.42 39.8-56.66-4.02-10.7-12.44-16.83-23.1-16.83-7.42 0-14.77 2.93-19.66 7.27a21.2 21.2 0 00-2.76 2.95 22.47 22.47 0 00-2.77-2.94zm2.92 65.07l1.08-.73 2.33-1.5h.01c6.78-4.33 18.7-11.94 27.77-21.47 9.2-9.68 14.32-20.07 10.44-30.41-3.5-9.29-10.52-14.24-19.36-14.24-7.9 0-15.56 3.84-19.24 8.65l-3.15 4.12-3.19-4.09C53.9 29.8 46.3 26 38.62 26c-8.84 0-15.85 4.97-19.31 14.32m41.74 54.1a48.95 48.95 0 00-2.01-1.44c-1.02-.7-2.26-1.5-3.39-2.24-7.07-4.62-18.4-12.03-26.87-21.2-8.56-9.25-13.2-19.15-9.47-29.22"/></svg>