<svg xmlns="http://www.w3.org/2000/svg" viewBox="0 0 122 122"><path fill-rule="evenodd" clip-rule="evenodd" d="M21.79 106.53V27.38c0-3.42 1.35-6.7 3.75-9.1a12.76 12.76 0 019.03-3.78h63.7c.4 0 .8.16 1.09.46.29.29.46.69.46 1.1v75.4c0 .41-.17.81-.46 1.1-.3.3-.69.46-1.1.46H34.58a9.68 9.68 0 00-6.85 2.86 9.77 9.77 0 00-2.84 6.88v2.2h65.9a1.58 1.58 0 010 3.14H23.32c-.4 0-.8-.16-1.09-.45-.29-.3-.45-.7-.45-1.12zm33.06-88.9v40.55l12.52-9.45a1.53 1.53 0 011.84 0l12.52 9.45V17.64H54.85zm41.87 72.25V17.64h-11.9V61.3a1.59 1.59 0 01-.85 1.4 1.53 1.53 0 01-1.61-.14L68.29 51.95l-14.06 10.6a1.53 1.53 0 01-2.24-.42 1.59 1.59 0 01-.23-.83V17.64H34.57a9.68 9.68 0 00-6.85 2.86 9.77 9.77 0 00-2.84 6.87v66.17l3.3-1.93a12.63 12.63 0 016.39-1.73h62.15z"/></svg>