<svg xmlns="http://www.w3.org/2000/svg" viewBox="0 0 20 20"><path fill-rule="evenodd" clip-rule="evenodd" d="M6.67.92c.41 0 .75.33.75.75v.91h5.16v-.91a.75.75 0 111.5 0v.91H15a4.08 4.08 0 014.08 4.09V15A4.08 4.08 0 0115 19.08H5A4.08 4.08 0 01.92 15V6.67A4.08 4.08 0 015 2.58h.92v-.91c0-.42.33-.75.75-.75zm-.75 3.16H5a2.58 2.58 0 00-2.58 2.59v.91h15.16v-.91A2.58 2.58 0 0015 4.08h-.92V5a.75.75 0 01-1.5 0v-.92H7.42V5a.75.75 0 11-1.5 0v-.92zm11.66 5H2.42V15A2.58 2.58 0 005 17.58h10A2.58 2.58 0 0017.58 15V9.08z" /></svg>
