<svg xmlns="http://www.w3.org/2000/svg" viewBox="0 0 16 16"><path d="M8.75 5v2.57l2.22 1.28a.75.75 0 11-.75 1.3l-2.6-1.5-.01-.01a.76.76 0 01-.04-.03l-.03-.02-.03-.02a.74.74 0 01-.03-.03l-.02-.02a.76.76 0 01-.2-.42v-.03-.05L7.24 8V5a.75.75 0 011.5 0zm5.4 1.97l.04-.01.04-.01.03-.01.04-.01.03-.02.03-.02.03-.01.04-.02.03-.03.03-.02a.75.75 0 00.1-.1l.02-.03.02-.03.02-.03.02-.03.02-.04.01-.03.02-.03v-.04l.02-.03v-.04l.01-.04V6.3l.01-.08v-2.5a.75.75 0 10-1.5 0v.7l-.84-.85a6.25 6.25 0 100 8.84.75.75 0 00-1.06-1.06 4.75 4.75 0 110-6.72l.84.84h-.69a.75.75 0 000 1.5h2.61l.04-.01z"/></svg>