<svg xmlns="http://www.w3.org/2000/svg" viewBox="0 0 122 122"><path d="M94.55 46.67A1.67 1.67 0 0096 45V18.33a1.67 1.67 0 00-.62-1.28 1.67 1.67 0 00-1.38-.38s-1.88.38-4.67.9v-5.9a1.67 1.67 0 10-3.33 0v6.55c-8 1.46-19.81 3.45-25 3.45-5.18 0-17-1.99-25-3.45v-6.55a1.67 1.67 0 10-3.33 0v5.93c-2.78-.52-4.6-.93-4.66-.93a1.67 1.67 0 00-1.84.93c-.11.23-.17.48-.16.73V45a1.67 1.67 0 001.45 1.67l5.21.66V64l-4.78-.67A1.67 1.67 0 0026.01 65v10 .3a.94.94 0 000 .25c.05.15.13.3.23.42v.11c.14.16.31.3.5.39l30.53 15.2-30.35 15.18a1.67 1.67 0 00.75 3.15c.27 0 .52-.06.75-.18L61 93.53l32.58 16.29a1.67 1.67 0 001.5-2.97L64.74 91.67l30.34-15.19c.2-.09.36-.22.5-.38v-.12c.1-.12.18-.26.24-.41a.95.95 0 000-.25c.07-.1.13-.2.18-.32V65a1.67 1.67 0 00-1.88-1.67l-4.79.64V47.3l5.22-.63zm-65.2-26.3C35.46 21.55 53.81 25 61 25c7.19 0 25.53-3.45 31.67-4.63v23.16c-5.44.7-24.65 3.14-31.67 3.14-7.01 0-26.23-2.44-31.66-3.14V20.37zm7.79 57.5C45.14 78.83 56 80 61 80s15.87-1.17 23.87-2.13L61 89.8 37.14 77.87zm55.53-4.34c-5.44.7-24.65 3.14-31.67 3.14-7.01 0-26.23-2.44-31.66-3.14v-6.66C35.36 67.68 53.87 70 61 70c7.14 0 25.65-2.32 31.67-3.1v6.63zM86 64.37c-8.01.98-19.81 2.3-25 2.3-5.18 0-16.98-1.32-25-2.3V47.7C44.08 48.72 55.7 50 61 50c5.32 0 16.94-1.28 25-2.27v16.64z" fill="#2D2E41"/></svg>