<svg xmlns="http://www.w3.org/2000/svg" viewBox="0 0 20 20"><path d="M6.9 13.03l.58-.3c-.18.26-.37.52-.56.76a2.54 2.54 0 01-.84.73.35.35 0 01-.03-.06c-.07-.13-.07-.27.05-.45.13-.2.4-.44.8-.68zm3.07-2.06l-.44.1c.22-.43.43-.87.62-1.31.2.36.41.72.64 1.07l-.82.14zm3.16 1.17c-.2-.15-.38-.32-.54-.5.28 0 .54.02.76.06.4.07.58.18.65.26.02.02.03.05.03.08 0 .09-.03.18-.07.25a.38.38 0 01-.12.16.13.13 0 01-.09.02c-.11 0-.32-.09-.62-.33zm-2.78-5.93c-.05.3-.14.66-.25 1.04a6.13 6.13 0 01-.11-.43c-.1-.45-.11-.8-.06-1.03.05-.22.14-.31.24-.36a.65.65 0 01.19-.04c.01.03.03.11.04.24 0 .16-.01.35-.05.58z" /><path fill-rule="evenodd" clip-rule="evenodd" d="M5 0h10a2.5 2.5 0 012.5 2.5v15A2.5 2.5 0 0115 20H5a2.5 2.5 0 01-2.5-2.5v-15A2.5 2.5 0 015 0zm.2 14.59c.12.22.3.42.55.52.26.1.52.05.73-.04.4-.16.8-.54 1.16-.98.41-.5.85-1.16 1.27-1.89.82-.24 1.65-.41 2.5-.5.37.47.76.89 1.14 1.18.35.28.75.5 1.16.52.23.01.45-.05.64-.17.2-.13.34-.3.44-.52.12-.23.19-.46.18-.7-.01-.24-.1-.47-.25-.65-.29-.34-.75-.5-1.2-.58a7.2 7.2 0 00-1.67-.06 13.7 13.7 0 01-1.23-2.11c.32-.83.55-1.6.65-2.24.05-.28.07-.54.06-.77 0-.24-.05-.47-.16-.67a.87.87 0 00-.6-.46 1.3 1.3 0 00-.74.1c-.47.18-.72.58-.82 1.02-.09.43-.05.92.06 1.42.11.51.3 1.06.54 1.62-.39.96-.83 1.89-1.33 2.79-.64.2-1.27.47-1.85.8-.46.28-.88.6-1.12.99-.27.4-.35.89-.1 1.38z" /></svg>