<svg xmlns="http://www.w3.org/2000/svg" viewBox="0 0 512 512"><circle cx="256" cy="256" r="256" fill="#f0f0f0"/><g fill="#d80027"><path d="M244.87 256H512c0-23.1-3.08-45.49-8.82-66.78H244.87V256zM244.87 122.44h229.56a257.35 257.35 0 00-59.07-66.79H244.87v66.78zM256 512a254.9 254.9 0 00159.36-55.65H96.64A254.9 254.9 0 00256 512zM37.57 389.56h436.86a254.47 254.47 0 0028.75-66.78H8.82a254.47 254.47 0 0028.75 66.79z"/></g><path d="M118.58 39.98h23.33l-21.7 15.76 8.3 25.51-21.7-15.76-21.7 15.76 7.15-22.04a257.4 257.4 0 00-49.65 55.34h7.48L36.27 124.6a255.58 255.58 0 00-6.19 10.94l6.6 20.3-12.31-8.95A253.57 253.57 0 0016 166.76l7.27 22.37h26.82l-21.7 15.76 8.29 25.51-21.7-15.77-13 9.45A258.47 258.47 0 000 256h256V0a254.79 254.79 0 00-137.42 39.98zm9.92 190.42l-21.7-15.77-21.7 15.77 8.3-25.5-21.7-15.77H98.5l8.3-25.51 8.28 25.5h26.82l-21.7 15.77 8.3 25.51zm-8.29-100.08l8.3 25.5-21.7-15.76-21.7 15.77 8.28-25.51-21.7-15.77h26.82l8.3-25.5 8.28 25.5h26.82l-21.7 15.77zM220.33 230.4l-21.7-15.77-21.7 15.77 8.29-25.5-21.7-15.77h26.82l8.29-25.51 8.29 25.5h26.82l-21.7 15.77 8.29 25.51zm-8.3-100.08l8.3 25.5-21.7-15.76-21.7 15.77 8.29-25.51-21.7-15.77h26.82l8.29-25.5 8.29 25.5h26.82l-21.7 15.77zm0-74.58l8.3 25.51-21.7-15.76-21.7 15.76 8.29-25.5-21.7-15.77h26.82l8.29-25.51 8.29 25.5h26.82l-21.7 15.77z" fill="#0052b4"/></svg>
