<svg xmlns="http://www.w3.org/2000/svg" viewBox="0 0 24 24"><path d="M23.3627 5.74937c-.2726-1.02648-1.0758-1.8349-2.0956-2.10924-1.8486-.49853-9.2609-.49853-9.2609-.49853s-7.41236 0-9.26093.49853C1.72543 3.91452.922222 4.72289.649609 5.74937.154297 7.60992.154297 11.4918.154297 11.4918s0 3.8818.495312 5.7424c.272613 1.0265 1.075821 1.8012 2.095661 2.0755 1.84857.4986 9.26093.4986 9.26093.4986s7.4123 0 9.2609-.4986c1.0198-.2743 1.823-1.049 2.0956-2.0755.4953-1.8606.4953-5.7424.4953-5.7424s0-3.88188-.4953-5.74243ZM9.5819 15.0162V7.96734l6.1953 3.52456-6.1953 3.5243Z"/></svg>