<svg xmlns="http://www.w3.org/2000/svg" viewBox="0 0 24 24"><path d="M12 8.88a3.13 3.13 0 000 6.24 3.13 3.13 0 000-6.24zM21.37 12c0-1.3.01-2.58-.06-3.87-.07-1.5-.42-2.83-1.51-3.93-1.1-1.1-2.43-1.43-3.93-1.5-1.3-.08-2.58-.07-3.87-.07-1.3 0-2.57-.01-3.86.06-1.5.08-2.84.42-3.93 1.51C3.1 5.3 2.77 6.63 2.7 8.13c-.08 1.3-.07 2.58-.07 3.87 0 1.3 0 2.58.07 3.87.07 1.5.41 2.83 1.5 3.93 1.1 1.1 2.44 1.43 3.94 1.5 1.29.08 2.57.07 3.86.07 1.3 0 2.58.01 3.87-.06 1.5-.08 2.83-.42 3.93-1.51 1.1-1.1 1.44-2.43 1.5-3.93.08-1.3.07-2.58.07-3.87zM12 16.8a4.8 4.8 0 11-.01-9.6 4.8 4.8 0 01.01 9.6zm5-8.68a1.12 1.12 0 110-2.24 1.12 1.12 0 010 2.24z" fill="#fff"/></svg>