<svg xmlns="http://www.w3.org/2000/svg" viewBox="0 0 45 32"><path fill-rule="evenodd" clip-rule="evenodd" d="M0 2.09C0 .93.92 0 2.05 0h40.9C44.08 0 45 .94 45 2.09V29.9c0 1.16-.92 2.09-2.05 2.09H2.05A2.07 2.07 0 010 29.91V2.1z" fill="#fff"/><path d="M11.57 11.83l2.55 6.47v-6.47h2.66l2.01 4.88 1.99-4.88h2.66v7.65h-1.79V14.4l-2.03 5.07H18l-2.23-5.53v5.53h-3.3l-.65-1.7H8.72l-.6 1.7H6.14l2.9-7.65h2.53zm20.53 0l1.85 2.3 1.89-2.3h2.34l-3.07 3.82 3.07 3.83h-2.34l-1.92-2.42-1.97 2.42h-7.18v-7.65h7.33zm-1.9.6v1.14h-3.72v1.21h3.72v1.73h-3.72v1.2h3.72v1l2.57-3.06-2.57-3.23zm-19.96 1.06l-.9 2.54h1.84l-.94-2.54z" fill="#016FD0"/></svg>