<svg xmlns="http://www.w3.org/2000/svg" viewBox="0 0 45 32"><path fill-rule="evenodd" clip-rule="evenodd" d="M0 2.09C0 .93.92 0 2.05 0h40.9C44.08 0 45 .94 45 2.09V29.9c0 1.16-.92 2.09-2.05 2.09H2.05A2.07 2.07 0 010 29.91V2.1z" fill="#fff"/><path d="M26.58 10.1h-7.34v11.77h7.34V10.1z" fill="#FF5F00"/><path fill-rule="evenodd" clip-rule="evenodd" d="M20 15.99c0-2.3 1.07-4.47 2.91-5.88a7.73 7.73 0 00-10.31.8 7.38 7.38 0 000 10.16 7.73 7.73 0 0010.31.8A7.42 7.42 0 0120 16z" fill="#EB001B"/><path d="M34.53 20.93v-.5h.12v-.1h-.28v.1h.11v.5h.05zm.54 0v-.6H35l-.1.43-.1-.42h-.08v.59h.06v-.45l.09.38h.06l.1-.38v.45h.05z" fill="#F79E1B"/><path fill-rule="evenodd" clip-rule="evenodd" d="M35.24 15.99a7.47 7.47 0 01-4.29 6.73 7.74 7.74 0 01-8.04-.85A7.44 7.44 0 0025.82 16c0-2.3-1.07-4.47-2.91-5.89a7.74 7.74 0 018.04-.84 7.47 7.47 0 014.3 6.73z" fill="#F79E1B"/></svg>