<svg xmlns="http://www.w3.org/2000/svg" viewBox="0 0 45 32"><path fill-rule="evenodd" clip-rule="evenodd" d="M0 2.09C0 .93.92 0 2.05 0h40.9C44.08 0 45 .94 45 2.09V29.9c0 1.16-.92 2.09-2.05 2.09H2.05A2.07 2.07 0 010 29.91V2.1z" fill="#fff"/><path fill-rule="evenodd" clip-rule="evenodd" d="M17.88 8.35h5c1.41 0 3.08.04 4.2.98a3.13 3.13 0 011.05 2.69c-.3 3.62-2.6 5.65-5.66 5.65h-2.46c-.42 0-.7.27-.82.98l-.69 4.16c-.04.27-.17.43-.4.44h-3.07c-.34 0-.47-.24-.38-.78l2.22-13.33c.1-.54.4-.8 1.01-.8z" fill="#1B3D92"/><path fill-rule="evenodd" clip-rule="evenodd" d="M21.1 12.52h5c2.68 0 3.69 1.29 3.53 3.19-.26 3.12-2.25 4.85-4.89 4.85h-1.33c-.36 0-.6.23-.7.85l-.58 3.58c-.04.23-.16.37-.36.39h-3.13c-.3 0-.4-.22-.32-.68l1.9-11.5c.09-.46.35-.68.88-.68z" fill="#00A2D3"/><path fill-rule="evenodd" clip-rule="evenodd" d="M19.02 18.45l.87-5.25c.08-.46.35-.68.88-.68h5c.82 0 1.49.12 2.01.35-.5 3.23-2.7 5.02-5.58 5.02h-2.47c-.32 0-.56.16-.7.56z" fill="#1B2E7F"/></svg>