<svg xmlns="http://www.w3.org/2000/svg" viewBox="0 0 45 32"><path fill-rule="evenodd" clip-rule="evenodd" d="M0 2.09C0 .93.92 0 2.05 0h40.9C44.08 0 45 .94 45 2.09V29.9c0 1.16-.92 2.09-2.05 2.09H2.05A2.07 2.07 0 010 29.91V2.1z" fill="#fff"/><path d="M25.64 10.1h-6.2v11.47h6.2V10.1z" fill="#7673C0"/><path fill-rule="evenodd" clip-rule="evenodd" d="M19.84 15.84c0-2.24 1-4.35 2.7-5.73a6.92 6.92 0 00-9.56.78 7.46 7.46 0 000 9.9 6.92 6.92 0 009.56.78 7.36 7.36 0 01-2.7-5.73z" fill="#EB001B"/><path d="M33.31 20.63v-.46h.1v-.1h-.24v.1h.1v.46h.04zm.46 0v-.56h-.08l-.08.4-.08-.4h-.07v.56h.05v-.42l.07.37h.06l.07-.37v.43h.06z" fill="#00A1DF"/><path fill-rule="evenodd" clip-rule="evenodd" d="M33.98 15.84c0 2.79-1.54 5.33-3.98 6.55a6.9 6.9 0 01-7.46-.82 7.37 7.37 0 002.7-5.73c0-2.24-1-4.35-2.7-5.74A6.9 6.9 0 0130 9.28a7.31 7.31 0 013.98 6.56z" fill="#00A1DF"/></svg>