<svg xmlns="http://www.w3.org/2000/svg" viewBox="0 0 45 32"><path fill-rule="evenodd" clip-rule="evenodd" d="M0 2.09C0 .93.92 0 2.05 0h40.9C44.08 0 45 .94 45 2.09V29.9c0 1.16-.92 2.09-2.05 2.09H2.05A2.07 2.07 0 010 29.91V2.1z" fill="#fff"/><path fill-rule="evenodd" clip-rule="evenodd" d="M19.98 20.7h-2.47l1.55-9.28h2.47l-1.55 9.27zM28.95 11.64a6.27 6.27 0 00-2.22-.4c-2.44 0-4.16 1.27-4.17 3.08-.02 1.33 1.23 2.07 2.17 2.51.95.46 1.28.75 1.28 1.16-.01.62-.77.9-1.49.9-.98 0-1.51-.14-2.32-.49l-.32-.15-.35 2.09c.58.25 1.65.48 2.76.49 2.6 0 4.29-1.24 4.3-3.17.02-1.05-.65-1.86-2.07-2.52-.87-.43-1.4-.71-1.4-1.15.01-.4.45-.8 1.43-.8.8-.02 1.4.17 1.84.36l.23.1.33-2z" fill="#0742A6"/><path d="M32.24 17.4l.99-2.59.32-.89.18.8s.46 2.22.57 2.69h-2.06zm3.05-5.98h-1.91c-.6 0-1.04.16-1.3.77l-3.67 8.5h2.6l.52-1.39h3.17l.3 1.4h2.29l-2-9.28z" fill="#0742A6"/><path fill-rule="evenodd" clip-rule="evenodd" d="M15.44 11.42l-2.42 6.32-.26-1.28a7.16 7.16 0 00-3.42-3.89l2.21 8.11h2.62l3.89-9.26h-2.62z" fill="#0742A6"/><path fill-rule="evenodd" clip-rule="evenodd" d="M10.77 11.42H6.8l-.04.18c3.1.77 5.16 2.63 6 4.86l-.86-4.26c-.14-.6-.58-.76-1.12-.78z" fill="#0742A6"/></svg>