<svg xmlns="http://www.w3.org/2000/svg" viewBox="0 0 122 122"><path fill-rule="evenodd" clip-rule="evenodd" d="M78.46 40.35L62 7 45.54 40.35l-36.8 5.34 26.63 25.96-6.29 36.66L62 91l32.92 17.3-6.29-36.65 26.63-25.96-36.8-5.34zm30.35 7.44l-32.34-4.7L62 13.78 47.53 43.09l-32.34 4.7 23.4 22.82-5.52 32.21L62 87.62l28.93 15.2-5.52-32.21 23.4-22.82z"/><path d="M68.73 65.77c0-7.1-9.91-4.08-9.91-8.1 0-1.28 1.12-2.11 2.91-2.11 1.93 0 3.17 1.06 3.33 2.65h3.28c-.13-2.89-2.03-4.94-4.97-5.46v-2.29h-2.78v2.21c-3.07.39-5.12 2.31-5.12 5 0 6.96 9.77 4.26 9.77 8.16 0 1.6-1.35 2.39-3.3 2.39-2.18 0-3.54-1.3-3.72-3.33h-3.3a6.26 6.26 0 005.67 6.21v2.3l2.78.02V71.1c3.22-.41 5.36-2.36 5.36-5.33z"/></svg>