<svg xmlns="http://www.w3.org/2000/svg" viewBox="0 0 326 40"><path d="M0 31.05h4.55V18.86h7.31c6.18 0 9.9-3.82 9.9-9.25 0-5.44-3.72-9.26-9.9-9.26H0v30.7Zm4.55-16.14V4.3h7.18c3.94 0 5.48 2.5 5.48 5.3 0 2.81-1.54 5.31-5.48 5.31H4.55ZM37.42 12.63V8.95h-2.67c-3.1 0-4.86 1.31-5.86 4.25V8.95h-4.25v22.1h4.25v-10c0-4.82 1.31-8.42 5.34-8.42h3.2ZM49.23 31.4c6.6 0 11.34-4.78 11.34-11.4S55.84 8.6 49.23 8.6c-6.61 0-11.39 4.78-11.39 11.4s4.78 11.4 11.39 11.4Zm0-3.72c-4.2 0-7.05-3.16-7.05-7.68s2.84-7.68 7.05-7.68c4.16 0 7 3.16 7 7.68s-2.84 7.68-7 7.68ZM64.07 40h4.24V27.94c1.27 2.1 3.9 3.46 6.83 3.46 6.7 0 10.69-4.82 10.69-11.4S82.02 8.6 75.36 8.6c-3.06 0-5.73 1.44-7.05 3.64v-3.3h-4.24V40Zm10.68-12.32c-4.12 0-6.79-3.07-6.79-7.68 0-4.6 2.67-7.68 6.79-7.68 4.07 0 6.79 3.07 6.79 7.68 0 4.6-2.72 7.68-6.8 7.68ZM96.63 31.4c5 0 8.28-2.58 8.28-6.62 0-10.09-12.61-4.47-12.61-9.96 0-1.7 1.53-2.85 3.8-2.85 1.89 0 4.34 1.01 4.65 3.56h3.98c-.22-4.17-3.63-6.93-8.62-6.93-4.6 0-7.84 2.54-7.84 6.36 0 9.43 12.52 4.03 12.52 9.9 0 1.63-1.62 3-4.16 3-2.85 0-4.68-1.46-4.95-4H87.7c.3 4.65 3.76 7.54 8.93 7.54ZM110.68 2.02v6.93h-4.5v3.68h4.5v11.19c0 4.51 2.85 7.23 7.31 7.23h3.46v-3.68h-3.1c-2.15 0-3.42-1.32-3.42-3.69V12.63h6.52V8.95h-6.52V2.02h-4.25ZM133.8 31.4c6.61 0 11.34-4.78 11.34-11.4S140.4 8.6 133.8 8.6c-6.61 0-11.38 4.78-11.38 11.4s4.77 11.4 11.38 11.4Zm0-3.72c-4.2 0-7.05-3.16-7.05-7.68s2.85-7.68 7.05-7.68c4.16 0 7 3.16 7 7.68s-2.84 7.68-7 7.68ZM161.2 12.63V8.95h-2.67c-3.1 0-4.86 1.31-5.86 4.25V8.95h-4.25v22.1h4.25v-10c0-4.82 1.31-8.42 5.34-8.42h3.2ZM178.65 23.86c-.6 2.5-2.71 3.9-5.95 3.9-3.85 0-6.57-2.85-6.92-7.01h16.86c.04-.4.09-1.1.09-1.67 0-5.62-3.64-10.48-10.47-10.48-6.78 0-10.64 5.08-10.64 11.27 0 6.14 4.25 11.53 11.08 11.53 5.43 0 9.41-2.98 10.2-7.54h-4.25Zm-6.39-11.84c3.64 0 5.91 2.23 6.18 5.61H165.9c.66-3.68 2.9-5.61 6.35-5.61ZM208.02 31.05h3.06L198.75.35h-2.58l-12.35 30.7h3.02l3.42-8.73h14.4l3.37 8.73ZM191.3 19.61l6.17-15.8 6.13 15.8h-12.3ZM231.74 8.95H229v11.88c0 4.7-2.94 8.03-7.05 8.03-3.55 0-5.87-2.72-5.87-6.84V8.95h-2.76v13.42c0 5.48 3.24 9.03 8.23 9.03 3.5 0 6.3-1.62 7.45-4.95v4.6h2.75V8.95ZM246.21 31.4c5.56 0 8.94-2.76 9.72-7.19h-2.62c-.88 2.9-3.46 4.65-7.1 4.65-5.2 0-7.66-4.08-7.66-8.86 0-4.78 2.41-8.86 7.66-8.86 3.64 0 6.66 2.15 7.1 5.04h2.71c-.74-4.86-5.12-7.58-9.8-7.58-7.01 0-10.56 5.61-10.56 11.4s3.55 11.4 10.55 11.4ZM261.85 1.71v7.24h-4.73v2.54h4.73v12.94c0 4.08 2.5 6.62 6.48 6.62h3.28v-2.54h-3.32c-2.24 0-3.68-1.54-3.68-4.08V11.49h7V8.95h-7V1.7h-2.76ZM274.38 0v4.47h3.33V0h-3.33Zm.3 31.05h2.77V8.95h-2.76v22.1ZM292.51 31.4c6.48 0 11.12-4.73 11.12-11.4S299 8.6 292.51 8.6c-6.48 0-11.12 4.73-11.12 11.4s4.64 11.4 11.12 11.4Zm0-2.54c-4.9 0-8.23-3.68-8.23-8.86s3.33-8.86 8.23-8.86 8.23 3.68 8.23 8.86-3.32 8.86-8.23 8.86ZM307.57 31.05h2.76V19.17c0-4.7 2.93-8.03 7.05-8.03 3.54 0 5.86 2.72 5.86 6.84v13.07H326V17.63c0-5.48-3.24-9.03-8.23-9.03-3.5 0-6.3 1.62-7.44 4.95v-4.6h-2.76v22.1Z" /></svg>