<svg viewBox="0 0 201 46" xmlns="http://www.w3.org/2000/svg"><path d="M13.53.85c6.9 0 11.4 4.14 11.4 10.61 0 6.42-4.5 10.61-11.4 10.61H4.57v13.26H.27V.85h13.26zm-8.96 17.3h8.59c4.5 0 7.43-2.6 7.43-6.69 0-4.08-2.87-6.63-7.38-6.63H4.57v13.32zM40.7 10.19v3.92h-2.02c-5.26 0-6.69 4.4-6.69 8.39v12.83h-4.03V10.2h3.5l.53 3.77c1.17-1.91 3.08-3.77 7.59-3.77h1.11zM41.33 22.76c0-7.64 5.14-12.84 12.46-12.84 7.32 0 12.47 5.2 12.47 12.84S61.11 35.6 53.79 35.6s-12.46-5.2-12.46-12.84zm20.8 0c0-5.36-3.35-9.28-8.34-9.28-4.98 0-8.32 3.87-8.32 9.28 0 5.41 3.34 9.28 8.32 9.28 5 0 8.33-3.92 8.33-9.28zM94.27 22.76c0 7.7-5.15 12.84-12.04 12.84-4.25 0-7.11-1.7-8.6-4.14v13.69H69.6V10.19h3.5l.53 4.03c1.7-2.33 4.4-4.35 8.6-4.35 6.9.05 12.04 4.72 12.04 12.9zm-4.14 0c0-5.46-3.34-9.28-8.33-9.28-4.93 0-8.27 3.76-8.27 9.18 0 5.51 3.34 9.33 8.27 9.33 4.99.05 8.33-3.76 8.33-9.23zM101.06 27.06c.16 2.97 2.81 5.14 6.9 5.14 3.5 0 5.94-1.53 5.94-3.82 0-3.13-2.7-3.5-6.42-3.92-5.47-.7-9.97-1.7-9.97-6.95 0-4.56 4.19-7.64 9.7-7.59 5.68.06 9.76 2.76 10.14 7.96h-4.04c-.31-2.55-2.7-4.5-6.1-4.5-3.4 0-5.73 1.53-5.73 3.81 0 2.76 2.6 3.02 6.16 3.45 5.62.69 10.18 1.86 10.18 7.43 0 4.66-4.45 7.58-9.97 7.58-6.42 0-10.82-3.08-10.93-8.6h4.14zM123.55 13.9h-4.5V10.2h4.5v-7h4.03v7.05h6.37v3.72h-6.37v14.8c0 2.12.75 2.91 2.76 2.91h4.4v3.72h-4.61c-4.83 0-6.52-2.13-6.52-6.53V13.9h-.06zM135.6 22.76c0-7.64 5.14-12.84 12.46-12.84 7.32 0 12.47 5.2 12.47 12.84s-5.15 12.84-12.47 12.84c-7.37 0-12.47-5.2-12.47-12.84zm20.74 0c0-5.36-3.35-9.28-8.33-9.28-4.99 0-8.33 3.87-8.33 9.28 0 5.41 3.34 9.28 8.33 9.28 4.98 0 8.33-3.92 8.33-9.28zM176.5 10.19v3.92h-2.02c-5.25 0-6.69 4.4-6.69 8.39v12.83h-4.03V10.2h3.5l.53 3.77c1.17-1.91 3.08-3.77 7.59-3.77h1.11zM189.06 9.92c6.9 0 11.73 4.46 11.94 11.94 0 .53-.05 1.11-.1 1.7h-19.53v.32c.16 4.88 3.24 8.11 7.9 8.11 3.56 0 6.32-1.86 7.17-5.14h4.08c-1 5.04-5.14 8.7-10.93 8.7-7.53 0-12.46-5.15-12.46-12.84 0-7.7 4.83-12.79 11.94-12.79zm7.7 10.3c-.38-4.35-3.5-6.74-7.7-6.74a7.4 7.4 0 00-7.47 6.73h15.17z" /></svg>