<svg xmlns="http://www.w3.org/2000/svg" viewBox="0 0 16 16"><path fill-rule="evenodd" clip-rule="evenodd" d="M8 15c3.866 0 7-3.134 7-7 0-3.86599-3.134-7-7-7-3.86599 0-7 3.13401-7 7 0 3.866 3.13401 7 7 7Zm-.55-6.17c-.05333.17333-.08.37667-.08.61v.33h1.07v-.25c0-.16.01667-.29333.05-.4.04-.11333.11333-.22667.22-.34.11333-.11333.27333-.25.48-.41.25333-.19333.46667-.37667.64-.55.1733-.17333.3033-.36.39-.56.0933-.20667.14-.45333.14-.74 0-.52-.1867-.94333-.56-1.27-.36667-.32667-.88333-.49-1.55-.49-.43333 0-.83.05333-1.19.16s-.69333.24-1 .4l.45.94c.26667-.14.53333-.25.8-.33.26667-.08667.54667-.13.84-.13.32667 0 .57667.06667.75.2.18.13333.27.32667.27.58 0 .16-.03.30333-.09.43-.06.12-.15667.24333-.29.37-.12667.12667-.30333.27667-.53.45-.22.16667-.39667.33-.53.49-.12667.16-.22.33-.28.51Zm-.05 1.93c-.14667.1133-.22.3133-.22.6 0 .2733.07333.47.22.59.15333.12.33667.18.55.18.20667 0 .38333-.06.53-.18.15333-.12.23-.3167.23-.59 0-.2867-.07667-.4867-.23-.6-.14667-.1133-.32333-.17-.53-.17-.21333 0-.39667.0567-.55.17Z"/></svg>