<svg xmlns="http://www.w3.org/2000/svg" viewBox="0 0 24 24"><path d="M11.99 2a9.99 9.99 0 00-3.64 19.3 9.6 9.6 0 01.03-2.87l1.18-4.97s-.3-.6-.3-1.48c0-1.39.8-2.43 1.8-2.43.86 0 1.27.64 1.27 1.41 0 .86-.55 2.14-.83 3.33-.23 1 .5 1.8 1.48 1.8 1.78 0 3.14-1.87 3.14-4.57 0-2.4-1.72-4.07-4.17-4.07a4.32 4.32 0 00-4.51 4.34c0 .86.33 1.78.74 2.28a.3.3 0 01.07.28l-.28 1.14c-.04.18-.14.22-.33.13-1.25-.58-2.03-2.4-2.03-3.87 0-3.15 2.29-6.04 6.6-6.04 3.47 0 6.16 2.46 6.16 5.76 0 3.45-2.17 6.22-5.18 6.22-1.02 0-1.97-.53-2.3-1.15l-.62 2.38c-.22.86-.83 1.95-1.24 2.62A10 10 0 1012 2z"/></svg>